<?xml version="1.0" standalone="no"?>
<!DOCTYPE svg PUBLIC "-//W3C//DTD SVG 20010904//EN"
 "http://www.w3.org/TR/2001/REC-SVG-20010904/DTD/svg10.dtd">
<svg version="1.0" xmlns="http://www.w3.org/2000/svg"
 width="733.000000pt" height="733.000000pt" viewBox="0 0 733.000000 733.000000"
 preserveAspectRatio="xMidYMid meet">
<metadata>
Created by potrace 1.14, written by Peter Selinger 2001-2017
</metadata>
<g transform="translate(0.000000,733.000000) scale(0.100000,-0.100000)"
fill="#000000" stroke="none">
<path d="M4857 7324 c-1 -1 -49 -4 -107 -8 -58 -3 -143 -10 -190 -16 -47 -6
-103 -13 -125 -15 -35 -4 -155 -24 -240 -40 -736 -140 -1528 -520 -2105 -1009
-645 -546 -1068 -1196 -1280 -1966 -23 -84 -66 -299 -75 -375 -3 -27 -8 -59
-10 -70 -24 -123 -25 -610 -1 -755 3 -14 7 -47 11 -75 3 -27 10 -75 15 -105 6
-30 13 -68 15 -85 14 -78 79 -317 116 -427 185 -544 531 -1065 950 -1430 34
-29 67 -58 73 -64 7 -6 56 -46 111 -89 328 -257 712 -459 1128 -596 65 -22
131 -41 145 -43 15 -2 35 -7 44 -10 9 -4 22 -8 30 -10 7 -1 19 -5 26 -9 7 -5
12 -3 12 5 0 10 2 10 9 -1 5 -8 24 -14 42 -15 19 0 37 -4 40 -9 3 -4 22 -8 42
-9 20 -1 37 -6 37 -12 0 -6 5 -4 10 4 9 13 10 13 10 0 0 -13 1 -13 10 0 5 8
10 10 10 4 0 -7 7 -14 15 -18 19 -7 47 3 39 15 -3 5 2 6 11 3 14 -6 14 -8 -2
-20 -17 -12 -17 -13 2 -10 11 2 32 0 48 -5 19 -5 27 -4 27 5 0 21 -12 27 -29
13 -14 -10 -14 -10 -4 3 6 8 11 18 10 22 -1 3 1 9 6 12 4 3 5 3 2 0 -2 -4 3
-13 11 -22 12 -12 18 -12 24 -3 5 10 9 9 13 -3 3 -8 1 -18 -5 -22 -7 -5 -8 -2
-3 6 5 9 4 11 -4 6 -9 -6 -9 -11 0 -22 9 -11 15 -11 25 -3 8 6 14 9 14 5 0 -3
12 -1 28 4 26 10 26 9 7 -5 -20 -16 -20 -16 0 -13 11 2 26 7 33 11 7 5 12 3
12 -7 0 -10 9 -14 33 -12 17 2 38 -1 45 -7 9 -7 11 -5 6 9 -5 18 -5 18 9 2 11
-14 16 -15 27 -5 7 7 10 7 7 2 -3 -7 9 -12 31 -14 20 -2 46 -4 57 -5 11 -1 26
5 33 14 10 13 11 13 6 -3 -6 -17 -2 -18 40 -14 25 2 46 1 46 -2 0 -12 485 0
560 14 8 1 49 6 90 10 41 4 84 9 95 11 11 2 49 9 85 14 141 22 429 87 535 120
242 76 406 138 493 186 255 139 433 388 478 669 10 65 7 225 -5 294 -19 99
-68 225 -120 304 -74 113 -157 187 -363 323 -369 243 -537 382 -798 660 -231
246 -477 617 -597 899 -14 33 -33 78 -43 100 -26 57 -84 223 -118 341 -64 217
-112 482 -124 694 -1 20 7 30 47 59 25 18 42 37 39 43 -4 7 -2 8 4 4 6 -4 42
15 79 42 130 91 269 179 406 255 75 43 140 77 143 77 3 0 18 9 32 19 15 10 30
19 35 20 4 0 33 12 65 27 31 15 89 42 129 60 78 36 339 133 509 189 59 20 135
50 168 68 82 43 172 106 168 119 -1 5 2 7 7 4 8 -6 121 94 121 107 0 3 14 21
30 39 17 18 28 38 26 45 -3 7 -1 12 5 10 32 -7 136 240 159 374 13 81 17 189
7 189 -4 0 -4 7 1 16 12 21 -10 151 -40 239 -41 121 -121 261 -141 248 -6 -3
-7 -1 -4 4 9 14 -32 65 -45 57 -6 -4 -8 -3 -5 3 14 22 -161 161 -186 147 -6
-4 -9 -4 -5 1 5 5 0 14 -11 21 -39 28 -211 87 -290 100 -19 3 -64 12 -100 19
-36 8 -67 12 -70 10 -2 -3 -9 -1 -15 4 -6 5 -38 12 -71 15 -33 4 -73 9 -90 11
-127 18 -259 27 -468 29 -98 1 -179 1 -180 0z m1187 -1592 c3 -5 -1 -9 -9 -9
-8 0 -12 4 -9 9 3 4 7 8 9 8 2 0 6 -4 9 -8z m-1685 -1099 c-40 -46 -83 -94
-99 -112 -9 -9 -28 -33 -44 -54 -16 -20 -33 -34 -39 -30 -6 4 -7 1 -2 -7 4 -7
3 -15 -2 -19 -11 -8 -156 -209 -172 -239 -7 -12 -15 -20 -19 -18 -5 3 -9 -5
-9 -16 -1 -11 -11 -30 -21 -42 -10 -11 -22 -28 -26 -36 -26 -57 -77 -135 -86
-132 -6 1 -9 -2 -5 -8 8 -13 -74 -172 -85 -165 -5 3 -12 0 -16 -6 -4 -8 -3 -9
4 -5 20 12 14 -10 -27 -96 -43 -94 -114 -279 -156 -413 -31 -97 -35 -103 -68
-101 -16 1 -21 7 -20 24 3 27 -13 29 -20 2 -3 -13 2 -25 14 -33 10 -8 16 -17
12 -20 -3 -4 -12 2 -20 13 -13 19 -14 19 -38 -2 -29 -25 -26 -35 4 -18 17 9
25 8 38 -6 16 -16 18 -15 30 12 7 16 13 22 13 14 1 -10 3 -11 7 -2 2 6 9 12
14 12 6 0 5 -8 -1 -20 -7 -12 -16 -18 -23 -13 -9 5 -9 3 0 -8 13 -16 6 -69 -9
-69 -5 0 -6 -4 -3 -10 3 -5 0 -10 -7 -10 -9 0 -10 -2 -2 -8 9 -5 8 -24 -2 -72
-7 -36 -14 -74 -14 -84 0 -10 -8 -25 -17 -32 -22 -17 -37 -18 -27 -2 5 8 2 9
-9 5 -10 -3 -17 -2 -17 3 0 6 7 10 17 10 15 0 15 1 0 18 -12 13 -13 21 -6 32
9 13 10 12 6 -2 -3 -9 1 -22 9 -28 12 -10 13 -8 10 16 -2 16 -5 35 -7 43 -2 9
4 16 16 18 17 2 18 2 2 -5 -15 -6 -16 -10 -4 -26 11 -15 16 -16 22 -6 5 9 4
11 -3 6 -7 -4 -12 -2 -12 3 0 6 5 11 11 11 6 0 9 6 6 14 -3 7 0 19 6 25 6 6 7
11 3 11 -5 0 -2 8 5 18 13 16 13 16 -5 2 -18 -14 -18 -13 -12 8 6 16 4 21 -7
16 -7 -2 -20 2 -27 11 -10 12 -10 18 0 30 7 8 17 15 22 15 5 0 2 -7 -6 -16
-16 -16 -13 -34 5 -34 6 0 8 4 5 9 -3 5 1 15 10 22 14 12 14 14 -2 26 -10 7
-13 13 -7 13 7 0 15 -5 18 -10 8 -12 25 -4 25 12 0 6 -3 8 -6 5 -4 -3 -15 -2
-24 3 -14 7 -22 4 -36 -15 -10 -14 -23 -25 -28 -25 -5 0 0 11 12 23 l22 24
-30 0 c-24 0 -27 -3 -19 -14 8 -8 8 -13 1 -13 -6 0 -12 5 -14 11 -2 5 -19 12
-38 13 -23 2 -34 8 -32 16 3 11 0 11 -12 0 -24 -19 -19 3 6 30 17 18 18 22 5
17 -19 -7 -20 -2 -8 28 5 11 5 27 1 35 -5 9 -2 23 7 35 15 20 15 20 13 0 -4
-33 -1 -42 14 -42 14 0 16 14 3 34 -9 15 2 45 15 37 5 -3 0 12 -11 35 -24 45
-11 57 14 14 15 -27 16 -27 10 -3 -6 24 -5 24 9 6 9 -11 16 -15 16 -10 0 6 -5
15 -12 22 -9 9 -9 12 2 12 7 0 10 3 7 6 -4 4 -13 2 -20 -4 -11 -9 -14 -6 -14
18 0 23 3 27 13 19 9 -8 19 -4 35 12 14 14 16 20 7 16 -9 -3 -26 2 -39 10 -12
9 -19 11 -15 5 4 -7 -4 -23 -20 -37 -15 -14 -24 -28 -21 -31 3 -3 -3 -15 -13
-27 -12 -12 -18 -31 -16 -48 2 -16 -3 -34 -10 -40 -10 -9 -12 -2 -10 32 2 24
9 45 15 47 6 2 9 8 5 13 -3 5 0 9 6 9 6 0 9 4 5 10 -3 5 3 18 14 29 11 11 17
22 14 25 -4 3 -2 6 4 6 6 0 13 14 17 30 3 18 12 30 21 30 9 0 15 6 14 13 -3
24 1 38 10 33 5 -3 11 8 15 24 3 19 12 30 22 30 10 0 14 -3 11 -7 -4 -3 -2
-12 4 -20 9 -9 8 -13 0 -13 -6 0 -11 -5 -11 -12 0 -8 7 -6 18 5 13 14 14 19 4
26 -10 6 -10 10 3 21 18 15 20 41 4 57 -8 8 -8 13 0 17 6 4 11 2 11 -3 0 -6 4
-11 8 -11 4 0 8 9 8 19 0 11 -5 17 -10 14 -5 -4 -6 -1 -2 6 5 7 14 10 22 7 7
-3 16 0 20 6 4 7 3 8 -4 4 -7 -4 -12 -1 -12 9 0 9 7 15 16 13 10 -2 19 4 21
12 4 13 3 13 -7 0 -10 -13 -11 -12 -6 3 3 10 6 23 6 29 0 6 9 8 21 5 16 -4 18
-3 8 9 -9 11 -9 14 0 14 7 0 9 5 5 12 -4 7 -3 8 4 4 7 -4 12 -1 12 9 0 10 5
13 12 9 8 -5 9 -2 5 9 -4 10 1 22 11 29 10 7 25 24 34 38 9 14 26 35 37 48 12
12 20 22 17 22 -3 0 8 15 25 32 16 18 29 36 29 41 0 4 5 5 10 2 6 -3 10 -1 10
4 0 6 10 23 23 37 62 74 76 86 89 79 10 -6 10 -5 2 4 -9 10 15 40 102 127 69
70 118 112 126 108 7 -4 8 -3 4 4 -4 6 5 22 20 34 15 13 42 37 61 55 18 17 33
30 33 28 0 -2 17 12 38 30 112 102 146 129 101 78z m-913 -1038 c-3 -8 -12
-12 -21 -9 -8 3 -12 10 -9 15 3 5 10 7 15 3 5 -3 9 -2 8 3 -3 16 3 28 8 15 3
-7 2 -19 -1 -27z m-72 -196 c-6 -11 -24 -2 -24 11 0 5 7 7 15 4 8 -4 12 -10 9
-15z m-34 -29 c0 -5 -7 -10 -15 -10 -8 0 -15 5 -15 10 0 6 7 10 15 10 8 0 15
-4 15 -10z m-21 -99 c-8 -13 -9 -11 -5 9 3 14 3 19 0 12 -3 -6 -11 -9 -16 -6
-7 4 -8 2 -4 -4 4 -6 1 -22 -6 -34 -7 -13 -11 -27 -9 -33 1 -5 -3 -5 -10 2
-10 10 -9 16 1 28 8 9 14 29 15 44 2 45 15 56 31 26 10 -20 11 -32 3 -44z
m-74 -11 c-8 -13 17 -60 32 -60 9 0 8 -5 -4 -18 -10 -11 -21 -17 -25 -15 -4 2
-5 -4 -1 -13 6 -15 2 -14 -25 4 -29 21 -35 52 -10 52 5 0 6 -4 3 -10 -3 -5 -1
-10 5 -10 6 0 8 -5 4 -11 -4 -8 -1 -8 14 0 18 10 22 41 5 41 -3 0 -3 -7 1 -15
3 -8 1 -15 -4 -15 -6 0 -10 7 -10 15 0 8 -5 15 -10 15 -6 0 -4 10 5 23 8 13
12 27 8 32 -5 4 -2 5 5 1 7 -4 10 -11 7 -16z m31 -112 c-1 -25 -6 -33 -21 -33
-11 -1 -19 -6 -18 -13 2 -6 -4 -9 -12 -5 -12 4 -13 8 -4 19 7 8 9 17 5 21 -3
3 -6 0 -6 -7 0 -9 -5 -8 -13 5 -9 12 -16 14 -21 7 -3 -6 1 -15 10 -20 15 -9
15 -10 -6 -17 -18 -6 -20 -9 -9 -16 11 -7 11 -9 1 -9 -7 0 -10 -5 -6 -12 4 -7
3 -8 -4 -4 -8 5 -10 1 -5 -10 5 -14 3 -16 -13 -11 -19 7 -19 7 0 -8 19 -14 11
-21 -17 -16 -5 1 -5 -4 -1 -11 5 -10 4 -10 -7 0 -12 11 -12 14 1 22 8 5 11 10
6 10 -5 0 -4 6 2 13 6 6 11 17 11 22 0 6 7 17 15 27 8 9 12 19 9 21 -2 3 1 15
8 28 11 22 12 22 25 4 8 -10 14 -15 14 -11 0 5 7 3 15 -4 12 -10 17 -7 26 14
16 33 17 33 15 -6z m3 -64 c5 4 12 2 16 -4 4 -6 10 -8 15 -5 5 3 7 -4 5 -15
-2 -12 3 -24 16 -30 20 -11 26 -30 8 -30 -5 0 -7 5 -3 12 5 8 2 9 -9 5 -10 -4
-16 -2 -14 5 1 6 -4 13 -12 16 -8 3 -11 0 -7 -7 4 -6 2 -11 -5 -11 -7 0 -9 -3
-6 -6 4 -4 -3 -20 -15 -37 -12 -17 -17 -27 -10 -23 7 4 12 2 12 -5 0 -8 4 -8
15 1 8 7 16 11 16 9 7 -23 6 -58 -2 -53 -5 3 -7 15 -3 27 6 19 5 20 -10 8 -9
-7 -16 -10 -16 -5 0 15 -20 -20 -20 -35 0 -11 4 -9 16 5 15 18 15 18 5 -3 -6
-12 -16 -24 -23 -26 -10 -4 -10 -7 0 -15 11 -7 11 -10 -2 -15 -22 -9 -20 -22
7 -35 21 -11 21 -11 -4 -6 -16 3 -30 1 -34 -7 -5 -8 -4 -10 3 -5 7 4 12 3 12
-3 0 -5 -5 -13 -11 -17 -8 -4 -7 -9 2 -15 12 -7 12 -9 1 -9 -10 0 -13 -11 -9
-40 3 -24 1 -37 -5 -34 -6 4 -7 -3 -3 -17 l7 -24 -18 25 c-22 29 -30 65 -12
54 7 -4 8 -3 4 5 -4 6 -2 19 5 27 10 12 9 13 -7 7 -17 -6 -18 -5 -5 11 13 15
13 19 0 27 -8 5 -19 7 -26 4 -7 -2 -15 0 -18 5 -4 6 -11 10 -18 10 -6 0 -2 -6
8 -14 11 -8 24 -12 29 -9 5 4 6 1 2 -5 -4 -7 -4 -18 1 -24 11 -19 13 -38 3
-38 -5 0 -7 -9 -5 -20 3 -13 0 -18 -7 -14 -7 5 -8 2 -3 -7 7 -12 5 -12 -6 -1
-12 11 -12 14 1 22 8 5 13 10 10 11 -3 0 -16 2 -29 5 -20 4 -22 2 -11 -11 7
-8 9 -15 4 -15 -4 0 1 -7 12 -16 10 -8 13 -13 7 -9 -8 4 -11 1 -7 -8 3 -8 -5
-18 -18 -25 -13 -6 -17 -11 -10 -11 7 -1 10 -6 6 -13 -4 -7 -3 -8 5 -4 6 4 9
11 6 16 -3 4 2 11 10 14 13 4 13 2 5 -14 -9 -16 -8 -19 7 -14 17 5 17 5 0 -6
-14 -9 -16 -15 -6 -26 10 -12 9 -13 -7 -8 -18 7 -18 7 -1 -13 9 -11 17 -24 17
-29 0 -5 -4 -3 -9 5 -6 9 -11 10 -15 2 -4 -6 -3 -11 1 -11 5 0 9 -10 10 -22 2
-22 1 -22 -10 -3 -8 13 -24 21 -45 22 -27 1 -31 -1 -22 -12 13 -15 4 -39 -11
-30 -16 11 -9 -7 9 -21 21 -17 53 -18 50 -2 -2 7 7 13 20 14 46 3 48 4 33 13
-8 5 -10 14 -5 22 11 18 13 49 2 43 -16 -10 -7 15 10 26 16 11 16 11 0 6 -21
-6 -23 5 -6 22 21 21 25 14 24 -43 -1 -30 -3 -55 -7 -55 -3 0 -5 -16 -6 -35
-1 -24 3 -33 10 -28 7 4 6 -1 -2 -10 -16 -20 -26 -23 -15 -4 6 9 5 9 -8 0 -17
-14 -29 -8 -22 12 3 7 -1 15 -9 18 -7 3 -14 -1 -14 -9 0 -7 5 -10 10 -7 6 3 7
1 3 -6 -4 -6 -16 -9 -27 -6 -12 4 -21 1 -25 -9 -3 -9 -12 -16 -20 -16 -8 0
-14 -4 -14 -9 0 -5 15 -7 33 -6 48 4 49 4 43 14 -6 9 51 7 61 -3 3 -3 1 -11
-4 -18 -20 -25 -22 -58 -5 -59 10 -1 7 -4 -8 -9 -14 -4 -20 -8 -14 -9 17 -1
25 -29 12 -37 -6 -4 -8 -3 -4 4 3 6 1 14 -5 18 -8 4 -9 3 -5 -4 4 -7 1 -12 -6
-12 -9 0 -10 -2 -1 -8 6 -4 13 -22 16 -40 4 -25 1 -35 -14 -42 -22 -12 -21
-13 -24 17 -1 13 2 20 8 16 6 -3 7 -1 3 5 -4 7 -1 12 6 12 10 0 10 2 -1 9 -8
5 -12 18 -8 30 3 12 0 24 -5 27 -7 4 -4 10 6 16 9 5 14 13 11 19 -4 5 -1 9 6
9 18 0 5 10 -20 15 -11 2 -21 -1 -21 -6 0 -6 -9 -7 -22 -3 -20 6 -21 5 -10 -8
10 -13 10 -17 -2 -21 -10 -4 -13 -1 -9 9 3 9 0 14 -8 12 -23 -5 -19 55 5 74
11 9 18 20 14 23 -4 4 -19 -5 -33 -19 -14 -15 -31 -24 -36 -21 -11 7 -11 3 -3
-20 5 -12 9 -13 14 -5 4 7 8 1 8 -15 0 -15 6 -31 13 -36 19 -12 2 -11 -20 0
-20 11 -44 -1 -47 -24 -2 -10 3 -15 11 -11 9 3 12 0 8 -10 -10 -27 -29 -12
-24 19 1 5 -4 7 -11 4 -13 -5 -14 -11 -3 -38 3 -9 -1 -23 -9 -32 -8 -8 -12
-18 -8 -22 4 -5 1 -5 -6 -1 -9 6 -10 11 -3 20 6 7 7 17 3 21 -4 5 -1 5 6 1 6
-4 12 -2 12 3 0 6 -4 11 -9 11 -10 0 -9 18 0 35 4 6 5 20 4 32 -1 12 3 19 8
16 5 -3 6 3 3 14 -4 13 2 30 16 48 17 22 18 27 6 23 -11 -5 -15 -2 -14 10 2 9
9 18 17 18 8 1 20 2 28 3 8 0 11 4 7 9 -7 7 -11 8 -37 11 -5 0 -7 7 -2 14 8
13 11 24 17 70 2 16 9 34 15 40 9 9 11 8 6 -4 -4 -10 0 -16 10 -16 9 0 14 6
11 13 -3 8 -1 16 4 19 6 4 10 11 10 18 0 8 -3 8 -12 -1 -7 -7 -17 -12 -23 -12
-5 0 -3 5 5 10 9 6 10 10 3 10 -16 0 4 60 20 60 7 0 5 5 -3 10 -8 5 -10 10 -4
10 6 0 11 7 12 15 1 8 3 22 4 30 1 8 5 15 9 15 5 0 5 7 2 17 -4 11 -3 14 6 9
8 -5 10 0 7 18 -3 15 -1 24 5 21 5 -4 9 3 9 14 0 22 14 28 24 12 4 -5 1 -11
-6 -13 -8 -3 -8 -9 1 -24 11 -16 12 -16 7 -1 -3 10 -2 15 3 12 18 -11 21 14 4
31 -23 23 -26 50 -7 68 8 8 15 18 14 21 -2 28 2 36 13 32 7 -3 24 4 38 14 13
10 21 19 16 19 -4 0 -1 13 7 29 9 16 12 31 9 35 -4 3 -1 6 6 6 8 0 10 -8 6
-22 -5 -20 -4 -20 5 -6 6 10 17 15 27 11 13 -5 15 -2 10 13 -7 18 -7 18 7 0 8
-10 19 -15 25 -12z m65 -29 c-4 -8 -8 -15 -10 -15 -2 0 -4 7 -4 15 0 8 4 15
10 15 5 0 7 -7 4 -15z m36 -20 c13 -16 6 -35 -13 -34 -9 0 -9 2 0 5 7 3 9 12
6 20 -3 7 -9 11 -14 8 -5 -3 -9 0 -9 5 0 16 15 13 30 -4z m-44 -60 c9 -14 14
-28 11 -32 -4 -3 -11 6 -16 20 -5 14 -16 27 -23 30 -9 4 -10 6 -1 6 7 1 20
-10 29 -24z m74 14 c0 -5 -5 -7 -11 -3 -8 4 -9 -1 -5 -17 3 -13 3 -18 0 -11
-3 6 -10 9 -16 6 -6 -4 -5 2 1 15 12 22 31 29 31 10z m-129 -22 c-10 -9 -11
-8 -5 6 3 10 9 15 12 12 3 -3 0 -11 -7 -18z m89 19 c0 -3 -4 -8 -10 -11 -5 -3
-10 -1 -10 4 0 6 5 11 10 11 6 0 10 -2 10 -4z m60 -21 c-10 -13 -9 -15 9 -15
12 0 19 -4 16 -10 -10 -16 -45 7 -39 25 4 8 11 15 16 15 6 0 5 -6 -2 -15z
m-103 -47 c-3 -8 -6 -5 -6 6 -1 11 2 17 5 13 3 -3 4 -12 1 -19z m83 12 c0 -5
-4 -10 -10 -10 -5 0 -10 5 -10 10 0 6 5 10 10 10 6 0 10 -4 10 -10z m-30 -16
c0 -2 -7 -4 -15 -4 -8 0 -15 4 -15 10 0 5 7 7 15 4 8 -4 15 -8 15 -10z m10
-33 c-6 -12 -15 -19 -21 -16 -11 7 -11 3 -3 -19 3 -9 11 -13 17 -9 6 3 7 1 3
-5 -3 -6 -16 -9 -27 -7 -15 3 -19 0 -15 -10 3 -8 1 -15 -5 -15 -6 0 -9 8 -7
18 2 9 9 16 16 15 7 -2 11 7 9 20 -1 14 3 21 12 19 9 -2 11 3 7 13 -3 9 -2 13
4 10 6 -3 10 -1 10 6 0 7 3 10 6 7 3 -4 1 -16 -6 -27z m-40 9 c0 -5 -4 -10
-10 -10 -5 0 -10 5 -10 10 0 6 5 10 10 10 6 0 10 -4 10 -10z m-60 -20 c0 -5
-4 -10 -10 -10 -5 0 -10 5 -10 10 0 6 5 10 10 10 6 0 10 -4 10 -10z m40 -15
c0 -8 -4 -15 -10 -15 -5 0 -7 7 -4 15 4 8 8 15 10 15 2 0 4 -7 4 -15z m-22
-38 c2 -10 -1 -17 -7 -17 -6 0 -8 6 -5 14 4 11 0 13 -14 9 -11 -2 -22 -1 -25
4 -3 5 7 8 21 7 17 0 28 -7 30 -17z m78 -29 c4 -7 4 -10 -1 -6 -4 4 -14 0 -22
-10 -10 -13 -13 -14 -11 -2 3 12 16 29 25 30 1 0 5 -6 9 -12z m64 -7 c0 -11
-7 -27 -16 -35 -8 -9 -11 -16 -5 -16 6 0 10 -11 9 -25 -1 -14 -5 -25 -9 -25
-4 0 -6 -15 -5 -32 0 -19 -4 -33 -11 -33 -6 0 -15 -3 -19 -7 -4 -5 -12 -8 -18
-8 -6 0 -3 5 7 11 9 6 15 14 12 19 -3 5 -1 11 5 15 17 11 11 31 -12 44 -23 11
-23 11 2 5 20 -5 23 -4 13 7 -7 7 -13 17 -13 23 0 5 6 2 13 -9 10 -12 16 -14
21 -7 4 7 3 12 -2 12 -8 0 -15 16 -22 50 -1 2 4 6 11 9 8 2 10 -2 6 -12 -4
-11 -2 -14 8 -10 8 3 12 9 9 14 -5 9 3 29 12 29 2 0 4 -9 4 -19z m-203 -23
c-3 -7 -5 -2 -5 12 0 14 2 19 5 13 2 -7 2 -19 0 -25z m43 28 c0 -3 -4 -8 -10
-11 -5 -3 -10 -1 -10 4 0 6 5 11 10 11 6 0 10 -2 10 -4z m43 -3 c-7 -2 -19 -2
-25 0 -7 3 -2 5 12 5 14 0 19 -2 13 -5z m-153 -7 c0 -3 -4 -8 -10 -11 -5 -3
-10 -1 -10 4 0 6 5 11 10 11 6 0 10 -2 10 -4z m166 -28 c5 -7 3 -8 -6 -3 -9 5
-10 1 -6 -16 6 -20 5 -21 -4 -6 -6 9 -8 22 -5 27 8 13 12 13 21 -2z m39 3 c3
-6 -5 -15 -17 -21 -21 -10 -21 -10 -6 3 10 8 15 17 11 20 -3 4 -4 7 0 7 3 0 8
-4 12 -9z m-115 -22 c0 -4 -10 -6 -21 -4 -32 6 -34 13 -4 13 14 0 25 -4 25 -9z
m52 -55 c-6 -12 -9 -7 -9 16 0 23 3 28 9 16 5 -9 5 -23 0 -32z m-45 14 c-3 -8
-6 -5 -6 6 -1 11 2 17 5 13 3 -3 4 -12 1 -19z m-81 -64 c9 -24 8 -31 -2 -31
-7 0 -12 5 -11 11 1 6 -7 11 -17 11 -22 0 -31 32 -14 52 13 16 28 1 44 -43z
m49 46 c3 -5 1 -10 -4 -10 -6 0 -11 5 -11 10 0 6 2 10 4 10 3 0 8 -4 11 -10z
m142 -5 c5 -4 2 -5 -6 0 -11 6 -13 4 -8 -8 4 -10 2 -14 -7 -11 -17 6 -16 32 0
30 8 -1 17 -6 21 -11z m-157 -50 c5 3 14 -5 20 -17 9 -20 9 -21 -2 -7 -7 9
-17 16 -23 17 -5 0 -10 5 -11 12 -2 6 -1 7 3 0 2 -5 9 -8 13 -5z m105 -23
c-13 -9 -13 -42 0 -62 7 -12 6 -13 -7 -3 -8 7 -14 25 -12 40 3 35 2 33 17 33
8 0 8 -3 2 -8z m30 -1 c3 -5 2 -12 -3 -15 -5 -3 -9 1 -9 9 0 17 3 19 12 6z
m51 -43 c-3 -28 -11 -55 -18 -59 -14 -9 -47 -2 -63 13 -5 5 3 4 19 -2 39 -15
60 4 31 27 -16 12 -16 14 -3 10 10 -3 20 -2 23 3 4 6 -2 10 -12 11 -16 0 -16
1 2 9 19 7 19 8 2 15 -15 6 -16 10 -5 16 25 16 29 9 24 -43z m-206 22 c0 -5
-4 -10 -10 -10 -5 0 -10 5 -10 10 0 6 5 10 10 10 6 0 10 -4 10 -10z m47 -16
c-3 -3 -12 -4 -19 -1 -8 3 -5 6 6 6 11 1 17 -2 13 -5z m4 -31 c13 -16 12 -17
-3 -4 -17 13 -22 21 -14 21 2 0 10 -8 17 -17z m-55 -18 c0 -14 -4 -25 -8 -25
-6 0 -5 25 1 48 3 10 7 -2 7 -23z m184 5 c0 -5 -2 -10 -4 -10 -3 0 -8 5 -11
10 -3 6 -1 10 4 10 6 0 11 -4 11 -10z m-80 -4 c0 -2 -8 -10 -17 -17 -16 -13
-17 -12 -4 4 13 16 21 21 21 13z m-195 -24 c2 -7 1 -11 -4 -7 -14 8 -42 -6
-34 -18 3 -5 1 -7 -5 -4 -5 4 -8 16 -5 26 6 22 40 24 48 3z m121 -10 c-17 -16
-18 -16 -5 5 7 12 15 20 18 17 3 -2 -3 -12 -13 -22z m91 5 c0 -8 -6 -14 -14
-14 -9 0 -10 4 -2 14 6 7 12 13 14 13 1 0 2 -6 2 -13z m80 -19 c-1 -13 -9 -29
-17 -36 -13 -11 -13 -11 1 -7 10 4 16 0 16 -10 0 -10 -6 -14 -16 -10 -13 4
-13 3 1 -8 17 -13 19 -32 5 -54 -4 -6 -3 -14 2 -17 12 -8 2 -46 -13 -46 -6 0
-5 -4 3 -9 9 -6 12 -23 10 -55 -2 -25 -1 -46 4 -46 4 0 3 -8 -2 -19 -6 -10 -7
-21 -4 -25 4 -4 7 -40 8 -81 1 -63 0 -72 -12 -57 -12 16 -13 16 -7 0 4 -11 1
-18 -6 -18 -6 0 -9 4 -5 9 3 5 1 12 -5 16 -5 3 -10 12 -10 18 0 7 4 6 10 -3 5
-8 10 -13 11 -10 0 3 2 13 4 23 2 9 -1 17 -6 17 -5 0 -2 12 8 28 17 26 17 27
-2 12 -17 -14 -18 -13 -12 2 3 10 1 20 -4 24 -8 4 -7 10 0 17 8 8 6 17 -7 31
-15 18 -15 19 0 8 11 -9 18 -10 23 -2 3 5 0 10 -7 10 -11 0 -10 2 0 9 11 6 10
10 -3 15 -14 5 -15 9 -5 21 7 8 9 15 5 15 -4 0 -1 7 6 16 12 15 11 16 -11 11
-14 -4 -19 -4 -12 -1 6 3 12 12 12 20 0 9 -4 13 -8 10 -5 -3 -9 1 -9 8 0 7 6
13 13 13 7 0 11 -4 8 -9 -3 -4 0 -8 6 -8 15 0 8 35 -8 36 -6 1 -15 3 -19 4 -5
1 -12 2 -16 1 -5 -1 -6 3 -2 9 5 8 11 8 20 0 12 -10 21 -5 40 29 5 9 4 12 -3
7 -11 -6 -15 5 -11 30 0 4 -5 11 -13 15 -10 7 -10 9 2 9 11 1 10 4 -4 15 -11
8 -15 15 -10 15 6 0 15 -5 22 -12 9 -9 12 -8 12 5 0 9 -6 17 -12 17 -9 0 -8 4
2 10 23 15 30 12 27 -12z m-141 -3 c-1 -8 -5 -17 -8 -21 -5 -4 -4 16 1 34 3 9
9 -1 7 -13z m-176 -45 c0 -5 -5 -10 -11 -10 -5 0 -7 5 -4 10 3 6 8 10 11 10 2
0 4 -4 4 -10z m120 6 c0 -3 -4 -8 -10 -11 -5 -3 -10 -1 -10 4 0 6 5 11 10 11
6 0 10 -2 10 -4z m71 -33 c13 -16 12 -17 -3 -4 -17 13 -22 21 -14 21 2 0 10
-8 17 -17z m88 -6 c-2 -1 -13 -9 -24 -17 -19 -14 -19 -14 -6 3 7 9 18 17 24
17 6 0 8 -1 6 -3z m11 -27 c0 -5 -2 -10 -4 -10 -3 0 -8 5 -11 10 -3 6 -1 10 4
10 6 0 11 -4 11 -10z m-263 -15 c0 -8 -4 -15 -9 -15 -10 0 -11 14 -1 23 9 10
10 9 10 -8z m-31 -20 c-3 -8 2 -19 12 -24 9 -6 12 -11 5 -11 -6 0 -15 5 -18
10 -3 6 -11 10 -16 10 -6 0 -8 -4 -5 -8 3 -5 -6 -15 -19 -22 -13 -7 -23 -16
-22 -19 2 -3 -7 -16 -20 -28 -45 -44 -22 -3 30 51 56 59 62 64 53 41z m-92
-11 c24 -9 19 -26 -19 -66 l-36 -36 22 -21 c29 -27 39 -26 64 5 l20 25 30 -25
c17 -15 35 -24 41 -22 7 3 14 -8 16 -25 3 -19 1 -28 -6 -26 -6 3 -10 9 -9 15
2 6 -15 24 -36 41 l-39 31 -16 -25 c-9 -13 -13 -31 -10 -39 3 -9 1 -16 -6 -16
-6 0 -9 4 -6 9 3 5 -12 20 -34 35 -22 14 -40 30 -40 34 0 4 16 25 36 46 35 37
36 40 19 53 -20 14 -16 17 9 7z m46 -8 c0 -3 -4 -8 -10 -11 -5 -3 -10 -1 -10
4 0 6 5 11 10 11 6 0 10 -2 10 -4z m60 -46 c10 -19 7 -22 -16 -19 -4 0 -11 -5
-16 -13 -8 -10 -9 -10 -5 2 2 8 10 14 16 13 6 -2 11 4 11 12 0 17 -16 20 -25
5 -3 -5 -12 -10 -18 -10 -13 1 21 30 35 30 4 0 12 -9 18 -20z m84 2 c2 -4 -5
-9 -17 -9 -17 -2 -19 0 -7 7 18 12 18 12 24 2z m-150 -37 c-10 -8 -23 -14 -29
-14 -5 0 -1 6 9 14 11 8 24 15 30 15 5 0 1 -7 -10 -15z m-120 -56 c-22 -24
-12 -36 10 -13 9 9 19 14 22 11 3 -3 -6 -13 -20 -22 -14 -10 -26 -22 -26 -27
0 -6 6 -5 15 2 12 10 18 10 32 -1 13 -11 17 -11 20 -1 3 6 9 12 15 12 6 0 5
-6 -2 -15 -7 -9 -19 -14 -25 -11 -7 2 -19 -1 -26 -7 -11 -10 -11 -9 0 6 10 13
10 17 1 17 -6 0 -14 -9 -17 -20 -3 -11 -8 -20 -12 -20 -9 0 -8 72 2 88 5 6 5
16 2 22 -3 6 1 7 10 4 14 -6 14 -8 -1 -25z m93 25 c-3 -3 -12 -4 -19 -1 -8 3
-5 6 6 6 11 1 17 -2 13 -5z m37 -26 c-6 -20 -5 -21 10 -9 23 19 20 5 -4 -21
-11 -12 -20 -30 -20 -39 0 -25 -15 -32 -30 -13 -10 12 -11 17 -1 27 10 9 11 8
6 -4 -4 -10 -2 -20 4 -24 7 -3 11 2 11 14 0 11 5 23 11 26 6 4 8 13 5 21 -3 8
-3 21 0 29 9 24 16 17 8 -7z m256 18 c0 -2 -8 -10 -17 -17 -16 -13 -17 -12 -4
4 13 16 21 21 21 13z m-338 -48 c-7 -7 -12 -8 -12 -2 0 14 12 26 19 19 2 -3
-1 -11 -7 -17z m150 -16 c10 -7 18 -19 18 -27 0 -7 6 -16 13 -18 7 -3 5 -6 -5
-6 -12 -1 -15 -6 -11 -18 5 -12 3 -14 -8 -9 -8 4 -5 0 5 -8 11 -9 16 -16 10
-16 -5 0 -8 -37 -7 -85 2 -57 -1 -85 -8 -85 -7 0 -9 10 -7 25 3 14 1 28 -5 32
-6 3 -7 1 -3 -5 4 -7 2 -12 -3 -12 -13 0 -13 3 -5 24 3 9 9 14 13 12 3 -2 7
11 7 29 0 19 -4 31 -9 28 -5 -3 -6 4 -2 16 5 16 3 20 -9 15 -9 -3 -13 -10 -10
-16 3 -5 -3 -4 -15 4 -22 14 -28 28 -11 28 6 0 10 -5 10 -10 0 -7 6 -8 17 -2
27 16 23 48 -9 66 -30 18 -35 31 -16 42 8 5 9 2 5 -10 -5 -14 -3 -17 8 -12 8
3 14 0 12 -6 -1 -5 6 -12 15 -13 14 -3 16 0 8 15 -6 11 -15 22 -20 25 -6 3
-10 14 -9 23 0 14 2 14 6 2 4 -8 14 -21 25 -28z m112 -4 c-3 -4 -11 -5 -19 -1
-21 7 -19 12 4 10 11 0 18 -5 15 -9z m79 -23 c4 -8 3 -16 -1 -19 -4 -3 -9 4
-9 15 -2 23 3 25 10 4z m-76 -10 c0 -8 -4 -12 -9 -9 -5 3 -6 10 -3 15 9 13 12
11 12 -6z m-235 -13 c8 -10 8 -13 1 -9 -7 4 -14 -1 -18 -13 -7 -20 -25 -28
-25 -10 0 6 4 10 9 10 5 0 11 6 14 14 4 10 0 14 -14 13 -10 -1 -19 -7 -19 -14
0 -16 -16 -17 -26 -1 -4 6 -3 8 3 5 6 -4 13 -1 16 6 7 18 44 18 59 -1z m56 -8
c0 -17 -3 -22 -8 -13 -5 6 -6 18 -3 26 8 19 11 16 11 -13z m152 20 c0 -8 -19
-13 -24 -6 -3 5 1 9 9 9 8 0 15 -2 15 -3z m-297 -28 c3 -7 1 -18 -5 -24 -7 -7
-4 -13 10 -21 10 -6 22 -8 25 -5 3 3 10 -4 17 -15 7 -14 7 -21 0 -21 -5 0 -10
6 -10 13 0 8 -7 14 -15 15 -8 1 -21 3 -28 4 -7 1 -13 15 -13 35 0 34 10 44 19
19z m181 -2 c10 -25 -1 -29 -14 -5 -6 12 -7 21 -1 21 5 0 12 -7 15 -16z m200
8 c3 -5 -1 -9 -9 -9 -8 0 -12 4 -9 9 3 4 7 8 9 8 2 0 6 -4 9 -8z m-267 -27
c-9 -7 -15 -14 -12 -17 3 -2 -2 -5 -10 -5 -8 0 -15 4 -15 9 0 4 5 8 11 8 5 0
7 4 4 10 -4 6 1 7 11 3 13 -5 15 -3 9 7 -6 9 -4 11 5 5 10 -6 10 -11 -3 -20z
m326 -10 c-7 -21 -12 -19 -10 4 0 11 5 18 9 15 4 -3 5 -11 1 -19z m-406 -1
c-3 -3 -12 -4 -19 -1 -8 3 -5 6 6 6 11 1 17 -2 13 -5z m31 -29 c-3 -3 -9 2
-12 12 -6 14 -5 15 5 6 7 -7 10 -15 7 -18z m67 7 c-5 -4 -11 -15 -13 -25 -3
-15 0 -16 17 -5 11 6 17 17 14 23 -4 5 4 1 16 -10 13 -11 26 -19 29 -17 15 8
10 -15 -8 -38 -22 -29 -44 -18 -29 15 9 18 9 18 5 -2 -5 -26 9 -31 18 -7 8 21
-11 45 -30 37 -7 -3 -12 -9 -9 -13 3 -5 -3 -7 -12 -6 -26 4 -26 56 0 56 8 0 8
-3 2 -8z m-130 -22 c-3 -5 -11 -10 -16 -10 -6 0 -7 5 -4 10 3 6 11 10 16 10 6
0 7 -4 4 -10z m25 -20 c0 -5 -4 -10 -10 -10 -5 0 -10 5 -10 10 0 6 5 10 10 10
6 0 10 -4 10 -10z m69 -32 c-11 -21 -15 -22 -25 -6 -4 7 -3 8 4 4 12 -7 16 4
13 34 -2 13 0 13 8 1 6 -10 6 -21 0 -33z m-95 -9 c-3 -5 -13 -8 -22 -8 -15 1
-15 2 0 6 15 4 16 8 7 26 -10 21 -9 21 5 3 9 -10 13 -23 10 -27z m507 39 c13
-67 3 -119 -17 -87 -4 8 -3 9 5 5 19 -12 7 45 -13 59 -13 10 -14 14 -4 18 15
6 28 8 29 5z m-438 -15 c-7 -2 -19 -2 -25 0 -7 3 -2 5 12 5 14 0 19 -2 13 -5z
m54 -10 c-4 -3 1 -12 11 -20 15 -13 15 -13 -6 -3 -19 9 -23 30 -5 30 4 0 3 -3
0 -7z m363 -23 c6 -11 7 -20 2 -20 -6 0 -12 9 -15 20 -3 11 -3 20 -1 20 2 0 8
-9 14 -20z m-455 -29 c-6 -5 -25 10 -25 20 0 5 6 4 14 -3 8 -7 12 -15 11 -17z
m54 14 c3 -3 -7 -4 -23 -1 -16 3 -31 8 -35 11 -3 3 7 4 23 1 16 -3 31 -8 35
-11z m36 -3 c-3 -3 -11 0 -18 7 -9 10 -8 11 6 5 10 -3 15 -9 12 -12z m-119
-26 c1 -9 -2 -14 -7 -10 -5 3 -6 10 -3 16 5 7 2 9 -8 6 -8 -4 -15 0 -15 8 0
19 30 1 33 -20z m159 14 c3 -6 -1 -7 -9 -4 -18 7 -21 14 -7 14 6 0 13 -4 16
-10z m-55 -10 c0 -5 -2 -10 -4 -10 -3 0 -8 5 -11 10 -3 6 -1 10 4 10 6 0 11
-4 11 -10z m96 -37 c-3 -3 -8 2 -12 11 -3 9 -10 13 -15 10 -5 -3 -6 2 -3 11 6
14 9 13 21 -5 8 -12 12 -24 9 -27z m-156 33 c0 -3 -4 -8 -10 -11 -5 -3 -10 -1
-10 4 0 6 5 11 10 11 6 0 10 -2 10 -4z m95 -6 c-3 -5 -12 -10 -18 -10 -7 0 -6
4 3 10 19 12 23 12 15 0z m-155 -21 c0 -5 -4 -9 -8 -9 -5 0 -9 7 -9 15 0 8 4
12 9 9 4 -3 8 -9 8 -15z m78 7 c-7 -8 -15 -12 -17 -11 -5 6 10 25 20 25 5 0 4
-6 -3 -14z m457 -8 c-1 -13 2 -33 6 -45 6 -17 5 -23 -6 -23 -7 0 -14 8 -14 18
0 9 -1 26 -4 37 -3 15 6 32 19 35 0 0 0 -10 -1 -22z m-360 -9 c-4 -5 -12 -9
-18 -8 -9 0 -8 2 1 6 6 2 9 10 6 15 -4 7 -2 8 5 4 6 -4 9 -12 6 -17z m-153
-31 c-6 -6 -12 -6 -17 3 -6 8 -4 10 5 4 9 -5 10 -1 6 16 -6 21 -6 22 5 6 7
-13 8 -22 1 -29z m218 11 c0 -20 -4 -28 -12 -23 -7 4 -8 3 -4 -5 6 -9 11 -9
24 1 13 11 14 11 7 -1 -14 -23 -5 -104 13 -126 16 -19 16 -19 -2 -5 -11 8 -17
10 -13 4 4 -7 8 -32 8 -58 1 -25 7 -46 13 -46 6 0 3 -5 -7 -11 -14 -8 -22 -8
-30 0 -8 8 -8 11 1 11 7 0 12 4 12 10 0 5 -7 7 -15 4 -8 -4 -15 -1 -15 6 0 6
-4 8 -10 5 -5 -3 -10 -1 -10 4 0 14 13 14 27 0 7 -7 12 -6 17 6 3 9 2 14 -3
11 -5 -3 -14 1 -21 9 -7 8 -9 15 -6 15 4 0 2 8 -3 18 -7 14 -6 19 3 19 8 0 12
-10 10 -24 -1 -15 3 -23 12 -23 11 0 12 5 6 18 -4 9 -8 32 -7 50 1 17 -3 32
-7 32 -5 0 -8 -7 -6 -16 2 -10 -4 -19 -12 -21 -13 -4 -13 -3 0 6 16 11 14 13
-22 15 -12 0 -23 8 -25 16 -3 9 -1 11 4 5 4 -6 14 -10 21 -9 6 1 17 2 23 3 6
0 10 18 9 39 -1 20 -1 42 0 47 1 6 3 15 5 20 1 6 3 13 3 18 4 19 12 4 12 -24z
m-110 11 c8 -5 11 -10 5 -10 -5 0 -17 5 -25 10 -8 5 -10 10 -5 10 6 0 17 -5
25 -10z m80 -5 c11 -13 10 -14 -4 -9 -9 3 -16 10 -16 15 0 13 6 11 20 -6z
m-137 -10 c-3 -9 -8 -14 -10 -11 -3 3 -2 9 2 15 9 16 15 13 8 -4z m21 -7 c-5
-7 -2 -9 8 -6 8 4 15 0 15 -7 0 -15 -18 -15 -29 0 -7 9 -2 25 8 25 3 0 2 -5
-2 -12z m-75 -25 c2 -1 -5 -1 -16 0 -11 0 -20 7 -20 14 0 10 4 10 16 1 9 -7
18 -13 20 -15z m175 8 c-9 -9 -34 -9 -34 -1 0 5 9 8 20 7 10 -1 17 -3 14 -6z
m-34 -26 c0 -1 -6 -8 -14 -14 -11 -9 -16 -9 -22 0 -5 8 -3 9 6 4 10 -6 12 -4
7 8 -4 11 -2 14 9 10 7 -3 14 -6 14 -8z m-160 -5 c0 -5 -2 -10 -4 -10 -3 0 -8
5 -11 10 -3 6 -1 10 4 10 6 0 11 -4 11 -10z m545 -21 c-1 -13 4 -27 10 -31 6
-5 2 -8 -9 -8 -12 0 -16 5 -12 15 3 8 2 15 -2 15 -4 0 -8 9 -8 20 0 11 5 19
11 17 5 -2 10 -15 10 -28z m-498 -31 c-3 -8 -6 -5 -6 6 -1 11 2 17 5 13 3 -3
4 -12 1 -19z m90 3 c-1 -12 -5 -17 -12 -12 -5 5 -18 7 -27 6 -10 -2 -18 1 -18
6 0 5 11 7 25 5 14 -3 25 0 25 5 0 5 2 9 4 9 3 0 4 -9 3 -19z m-137 -12 c0 -5
-4 -9 -8 -9 -5 0 -9 7 -9 15 0 8 4 12 9 9 4 -3 8 -9 8 -15z m531 -32 c-10 -9
-11 -8 -5 6 3 10 9 15 12 12 3 -3 0 -11 -7 -18z m21 -9 c-8 -8 -9 -4 -5 13 4
13 8 18 11 10 2 -7 -1 -18 -6 -23z m-512 12 c0 -5 -4 -10 -10 -10 -5 0 -10 5
-10 10 0 6 5 10 10 10 6 0 10 -4 10 -10z m120 6 c0 -2 -7 -7 -16 -10 -8 -3
-12 -2 -9 4 6 10 25 14 25 6z m-40 -10 c0 -2 -8 -10 -17 -17 -16 -13 -17 -12
-4 4 13 16 21 21 21 13z m-126 -36 c-6 -6 -10 -3 -10 10 0 13 4 16 10 10 7 -7
7 -13 0 -20z m59 5 c-3 -9 -8 -14 -10 -11 -3 3 -2 9 2 15 9 16 15 13 8 -4z
m84 -4 c-1 -15 -4 -17 -14 -9 -15 12 -17 22 -3 13 6 -3 10 -1 10 4 0 6 2 11 4
11 3 0 4 -9 3 -19z m423 -14 c-10 -9 -11 -9 -6 1 4 7 2 12 -6 12 -9 0 -9 3 2
10 19 12 27 -7 10 -23z m-360 9 c0 -2 -8 -10 -17 -17 -16 -13 -17 -12 -4 4 13
16 21 21 21 13z m-89 -23 c13 -16 12 -17 -3 -4 -17 13 -22 21 -14 21 2 0 10
-8 17 -17z m466 -15 c3 -46 7 -68 15 -68 4 0 6 -10 4 -22 -2 -13 0 -28 5 -34
5 -6 11 -21 13 -35 3 -13 5 -24 6 -24 1 0 3 -8 5 -18 2 -9 -1 -15 -6 -11 -5 3
-9 0 -9 -7 0 -7 -6 -4 -14 7 -9 12 -11 23 -5 29 12 12 12 52 0 60 -6 3 -8 15
-6 26 2 11 -2 22 -11 26 -8 3 -13 12 -10 19 3 7 1 16 -5 19 -5 4 -6 12 -2 18
4 7 8 15 9 20 5 25 10 23 11 -5z m-541 -13 c1 -8 -2 -15 -6 -15 -5 0 -8 9 -7
20 1 21 10 18 13 -5z m-35 -18 c-10 -9 -11 -8 -5 6 3 10 9 15 12 12 3 -3 0
-11 -7 -18z m129 19 c0 -2 -8 -10 -17 -17 -16 -13 -17 -12 -4 4 13 16 21 21
21 13z m61 -13 c13 -16 12 -17 -3 -4 -10 7 -18 15 -18 17 0 8 8 3 21 -13z
m-174 -29 c-3 -3 -12 -4 -19 -1 -8 3 -5 6 6 6 11 1 17 -2 13 -5z m183 -8 c-7
-7 -13 -7 -20 0 -6 6 -3 10 10 10 13 0 16 -4 10 -10z m76 -13 c-2 -42 14 -96
33 -110 14 -12 14 -12 -4 -6 -18 6 -19 5 -6 -11 8 -9 10 -16 5 -15 -22 4 -23
-2 -3 -22 17 -17 19 -23 8 -30 -8 -5 -9 -9 -4 -9 6 0 12 -11 13 -26 1 -14 6
-34 12 -44 5 -10 10 -28 10 -40 0 -14 4 -19 13 -14 9 5 9 4 0 -6 -13 -14 -3
-44 31 -94 11 -16 15 -26 9 -23 -7 4 -14 3 -17 -2 -4 -5 -1 -13 5 -16 5 -4 8
-12 6 -19 -6 -14 18 -37 29 -28 4 4 4 1 0 -6 -4 -7 -13 -10 -19 -6 -7 3 -4 -1
5 -9 10 -8 15 -17 11 -20 -3 -4 2 -19 12 -34 12 -18 14 -28 6 -31 -6 -2 -8 -8
-5 -13 3 -6 11 -5 20 2 12 10 13 9 8 -5 -8 -20 -21 -20 -40 -1 -9 8 -11 15 -6
15 5 0 9 7 9 15 0 8 -4 15 -9 15 -5 0 -7 4 -4 9 4 5 1 11 -6 13 -6 2 -13 11
-14 19 -2 7 -6 25 -10 39 -3 14 -7 42 -8 62 -1 37 -9 48 -21 28 -3 -5 -12 -10
-18 -10 -7 0 -4 7 6 14 20 15 22 27 5 22 -7 -1 -10 -1 -5 1 12 7 8 43 -5 43
-9 0 -8 4 2 10 13 8 13 10 -2 10 -9 0 -20 4 -23 10 -4 6 1 7 12 3 14 -5 16 -3
6 7 -6 7 -9 18 -7 25 3 7 0 16 -7 21 -8 5 -10 3 -4 -7 7 -12 6 -12 -6 0 -11
11 -11 14 -1 18 10 4 10 8 1 19 -6 8 -8 14 -5 14 4 0 2 10 -5 21 -8 17 -8 20
1 14 8 -5 11 -3 8 6 -3 8 -11 13 -17 11 -7 -1 -10 2 -6 8 3 5 1 10 -4 10 -6 0
-11 5 -11 11 0 5 5 7 10 4 6 -3 10 1 10 9 0 10 -6 13 -17 9 -16 -5 -15 -4 1 9
15 12 16 17 6 23 -8 5 -11 4 -7 -2 3 -5 0 -10 -8 -10 -11 0 -12 4 -4 13 6 7 9
19 6 26 -2 7 0 26 4 41 7 26 6 27 -8 15 -15 -12 -15 -11 -4 10 16 30 28 28 27
-5z m-199 -7 c3 -3 -13 -3 -36 -1 -25 3 -39 0 -36 -5 8 -13 16 -54 9 -47 -3 3
-5 7 -3 9 1 2 -3 13 -9 24 -6 12 -9 24 -6 27 7 7 73 1 81 -7z m0 -29 c0 -8 -6
-14 -14 -14 -9 0 -10 4 -2 14 6 7 12 13 14 13 1 0 2 -6 2 -13z m104 -4 c13
-16 12 -17 -3 -4 -17 13 -22 21 -14 21 2 0 10 -8 17 -17z m-55 -5 c3 -4 -1 -5
-10 -4 -8 1 -18 5 -22 8 -3 4 1 5 10 4 8 -1 18 -5 22 -8z m-61 -38 c10 -11 16
-20 13 -20 -3 0 -13 9 -23 20 -10 11 -16 20 -13 20 3 0 13 -9 23 -20z m-45
-25 c0 -5 -5 -3 -10 5 -5 8 -10 20 -10 25 0 6 5 3 10 -5 5 -8 10 -19 10 -25z
m177 -47 c2 -17 0 -19 -7 -8 -5 8 -6 18 -4 22 8 12 10 10 11 -14z m36 -3 c-3
-9 -8 -14 -10 -11 -3 3 -2 9 2 15 9 16 15 13 8 -4z m-216 -17 c-3 -8 -6 -5 -6
6 -1 11 2 17 5 13 3 -3 4 -12 1 -19z m623 7 c0 -8 -4 -15 -8 -15 -5 0 -9 7 -9
15 0 8 4 15 9 15 4 0 8 -7 8 -15z m-582 -40 c-3 -3 -9 2 -12 12 -6 14 -5 15 5
6 7 -7 10 -15 7 -18z m587 6 c-3 -5 -1 -12 5 -16 6 -4 8 -10 5 -15 -3 -5 -1
-11 5 -15 5 -3 10 -12 10 -18 0 -7 -5 -4 -11 6 -6 9 -14 15 -20 12 -5 -4 -9
-1 -9 4 0 6 6 11 13 11 7 1 5 6 -6 14 -14 11 -15 15 -5 19 19 8 20 8 13 -2z
m-608 -36 c0 -8 -4 -15 -9 -15 -10 0 -11 14 -1 23 9 10 10 9 10 -8z m23 -25
c0 -5 -5 -10 -11 -10 -5 0 -7 5 -4 10 3 6 8 10 11 10 2 0 4 -4 4 -10z m75 0
c3 -5 1 -10 -4 -10 -6 0 -11 5 -11 10 0 6 2 10 4 10 3 0 8 -4 11 -10z m45 0
c0 -5 -5 -10 -11 -10 -5 0 -7 5 -4 10 3 6 8 10 11 10 2 0 4 -4 4 -10z m40 0
c0 -5 -5 -10 -11 -10 -5 0 -7 5 -4 10 3 6 8 10 11 10 2 0 4 -4 4 -10z m-164
-46 c-1 -8 -6 -17 -12 -21 -5 -4 -6 -4 -2 1 4 5 3 14 -2 21 -7 8 -5 12 4 12 8
0 13 -6 12 -13z m84 6 c0 -5 -5 -10 -11 -10 -5 0 -7 5 -4 10 3 6 8 10 11 10 2
0 4 -4 4 -10z m34 2 c3 -5 -1 -9 -9 -9 -8 0 -12 4 -9 9 3 4 7 8 9 8 2 0 6 -4
9 -8z m61 -1 c-9 -8 -36 -10 -30 -2 2 4 11 8 20 8 8 0 13 -3 10 -6z m449 -33
c-9 -14 -23 2 -17 18 4 12 8 13 14 3 4 -7 5 -17 3 -21z m-420 -6 c3 -5 -1 -9
-9 -9 -8 0 -12 4 -9 9 3 4 7 8 9 8 2 0 6 -4 9 -8z m36 -2 c0 -5 -2 -10 -4 -10
-3 0 -8 5 -11 10 -3 6 -1 10 4 10 6 0 11 -4 11 -10z m397 -15 c0 -8 -4 -15 -9
-15 -10 0 -11 14 -1 23 9 10 10 9 10 -8z m-581 -27 c3 -4 -1 -5 -10 -4 -8 1
-18 5 -22 8 -3 4 1 5 10 4 8 -1 18 -5 22 -8z m98 0 c-3 -4 -11 -5 -19 -1 -21
7 -19 12 4 10 11 0 18 -5 15 -9z m499 -11 c3 -8 -1 -14 -8 -14 -7 0 -11 6 -8
14 3 7 6 13 8 13 2 0 5 -6 8 -13z m14 -50 c-2 -7 3 -21 12 -31 16 -19 16 -19
-11 0 -14 10 -22 21 -17 22 5 2 9 8 9 13 0 6 -5 7 -12 3 -7 -4 -8 -3 -4 5 9
14 29 4 23 -12z m-392 -6 c3 -5 2 -12 -3 -15 -5 -3 -9 1 -9 9 0 17 3 19 12 6z
m-238 -36 c0 -8 -4 -12 -9 -9 -4 3 -8 9 -8 15 0 5 4 9 8 9 5 0 9 -7 9 -15z
m675 -73 c-5 -14 -8 -12 -10 8 -2 14 -7 30 -10 35 -4 6 1 3 10 -8 10 -11 14
-25 10 -35z m-652 -22 c0 -5 -5 -10 -11 -10 -5 0 -7 5 -4 10 3 6 8 10 11 10 2
0 4 -4 4 -10z m250 0 c-8 -5 -19 -10 -25 -10 -5 0 -3 5 5 10 8 5 20 10 25 10
6 0 3 -5 -5 -10z m430 -30 c0 -4 -7 -11 -16 -14 -13 -5 -14 -4 -6 7 7 8 8 18
4 22 -4 5 -1 5 6 1 6 -4 12 -11 12 -16z m-485 -30 c3 -5 1 -10 -4 -10 -6 0
-11 5 -11 10 0 6 2 10 4 10 3 0 8 -4 11 -10z m502 -2 c-2 -7 2 -21 11 -30 8
-10 10 -18 5 -18 -10 0 -23 21 -29 48 -1 6 2 12 8 12 5 0 8 -6 5 -12z m-360
-25 c-4 -3 2 -20 13 -38 11 -18 17 -35 13 -38 -3 -4 0 -7 7 -7 7 0 10 -3 7 -7
-4 -3 1 -15 10 -26 10 -11 12 -17 6 -13 -7 4 -13 2 -13 -3 0 -6 8 -11 17 -11
9 0 13 -3 10 -6 -3 -4 -2 -14 2 -23 7 -12 2 -21 -18 -35 l-26 -20 19 22 c18
21 15 59 -4 47 -6 -4 -10 -3 -9 2 1 4 1 15 0 23 -1 13 -2 13 -11 0 -5 -8 -10
-10 -10 -4 0 5 5 15 10 20 7 7 4 19 -10 36 -11 15 -20 36 -20 48 0 11 -4 18
-10 15 -6 -3 -7 1 -4 9 3 9 11 16 17 16 6 0 7 -3 4 -7z m-287 -7 c0 -2 -8 -10
-17 -17 -16 -13 -17 -12 -4 4 13 16 21 21 21 13z m680 -30 c0 -2 -7 -7 -16
-10 -8 -3 -12 -2 -9 4 6 10 25 14 25 6z m24 -54 c13 -25 13 -29 0 -29 -8 0
-13 5 -11 11 3 6 0 19 -5 29 -5 9 -6 17 -4 17 3 0 12 -13 20 -28z m-416 -7
c-3 -3 -9 2 -12 12 -6 14 -5 15 5 6 7 -7 10 -15 7 -18z m456 -74 c3 -5 -2 -15
-12 -22 -15 -13 -16 -12 -4 3 10 13 10 17 0 21 -9 4 -9 6 -1 6 6 1 14 -3 17
-8z m21 -30 c3 -5 2 -12 -3 -15 -5 -3 -9 1 -9 9 0 17 3 19 12 6z m-361 -13
c-3 -5 -9 -6 -13 -4 -4 3 -13 1 -21 -5 -12 -7 -12 -9 3 -9 9 0 23 -11 29 -25
6 -14 15 -25 20 -25 5 0 6 -4 3 -10 -3 -5 -1 -10 5 -10 6 0 8 -4 5 -10 -8 -12
25 -61 36 -54 5 3 6 -2 3 -11 -4 -8 -1 -22 6 -30 15 -18 4 -20 -14 -2 -7 7
-11 18 -8 26 3 8 0 11 -7 7 -7 -5 -10 -2 -9 6 2 7 -3 12 -10 10 -8 -1 -11 2
-7 8 4 6 2 16 -3 23 -10 12 -12 18 -12 38 0 5 -5 7 -10 4 -6 -4 -10 -3 -9 2 4
25 -3 41 -21 46 -28 7 -15 37 15 35 13 -1 21 -6 19 -10z m376 -34 c-1 -4 4
-11 12 -16 11 -8 10 -9 -1 -6 -8 2 -15 15 -17 29 -1 13 0 18 2 12 3 -7 5 -15
4 -19z m-716 0 c3 -8 2 -12 -4 -9 -6 3 -10 10 -10 16 0 14 7 11 14 -7z m750
-42 c3 -5 -1 -9 -9 -9 -8 0 -12 4 -9 9 3 4 7 8 9 8 2 0 6 -4 9 -8z m-713 -55
c-10 -9 -11 -8 -5 6 3 10 9 15 12 12 3 -3 0 -11 -7 -18z m761 -14 c-6 -2 -9
-10 -6 -15 4 -7 2 -8 -5 -4 -13 9 -5 26 12 25 9 0 8 -2 -1 -6z m43 -76 c0 -4
7 -12 15 -17 8 -5 10 -10 4 -10 -14 0 -36 25 -29 32 3 3 -1 11 -10 18 -8 7
-15 17 -15 23 0 6 8 0 17 -13 10 -14 18 -29 18 -33z m-761 7 c3 -8 2 -12 -4
-9 -6 3 -10 10 -10 16 0 14 7 11 14 -7z m366 -14 c8 -5 11 -10 5 -10 -5 0 -17
5 -25 10 -8 5 -10 10 -5 10 6 0 17 -5 25 -10z m20 -30 c0 -4 -7 -13 -15 -20
-13 -11 -14 -10 -9 5 6 14 4 16 -6 10 -8 -5 -11 -4 -7 2 7 11 37 13 37 3z
m-353 -25 c0 -8 -4 -12 -9 -9 -5 3 -6 10 -3 15 9 13 12 11 12 -6z m370 0 c0
-8 -4 -15 -9 -15 -10 0 -11 14 -1 23 9 10 10 9 10 -8z m24 -51 c13 -14 23 -29
23 -32 -1 -4 3 -6 8 -4 6 2 8 -4 5 -12 -4 -9 1 -20 11 -25 19 -12 12 -14 -12
-5 -9 3 -16 13 -16 21 0 8 -5 11 -12 7 -6 -4 -9 -3 -6 2 9 15 -10 54 -24 50
-7 -1 -9 -1 -4 2 4 2 2 8 -5 13 -8 5 -9 9 -3 9 6 0 21 -12 35 -26z m419 6 c6
-11 8 -20 6 -20 -3 0 -10 9 -16 20 -6 11 -8 20 -6 20 3 0 10 -9 16 -20z m73
-105 c-7 -21 -12 -19 -10 4 0 11 5 18 9 15 4 -3 5 -11 1 -19z m-433 -5 c0 -5
-2 -10 -4 -10 -3 0 -8 5 -11 10 -3 6 -1 10 4 10 6 0 11 -4 11 -10z m26 -25 c1
-14 -1 -25 -5 -25 -4 0 -7 13 -7 30 0 35 8 31 12 -5z m-261 -15 c3 -5 1 -10
-4 -10 -6 0 -11 5 -11 10 0 6 2 10 4 10 3 0 8 -4 11 -10z m190 -48 c-3 -3 -11
0 -18 7 -9 10 -8 11 6 5 10 -3 15 -9 12 -12z m565 -12 c0 -5 -5 -10 -11 -10
-5 0 -7 5 -4 10 3 6 8 10 11 10 2 0 4 -4 4 -10z m-163 -25 c0 -8 -4 -12 -9 -9
-5 3 -6 10 -3 15 9 13 12 11 12 -6z m223 -19 c0 -3 -4 -8 -10 -11 -5 -3 -10
-1 -10 4 0 6 5 11 10 11 6 0 10 -2 10 -4z"/>
<path d="M4067 4356 c-4 -10 1 -12 14 -9 23 6 24 9 5 16 -8 3 -17 0 -19 -7z"/>
<path d="M4016 4311 c-4 -5 -2 -12 3 -15 5 -4 12 -2 15 3 4 5 2 12 -3 15 -5 4
-12 2 -15 -3z"/>
<path d="M3994 4282 c4 -7 1 -15 -8 -18 -20 -8 -20 -20 -2 -27 11 -4 13 -1 9
11 -6 14 -4 15 9 4 11 -9 18 -10 23 -2 4 6 1 9 -6 8 -7 -2 -13 2 -14 9 0 6 -4
15 -9 20 -5 5 -6 3 -2 -5z"/>
<path d="M3955 4220 c3 -5 8 -10 11 -10 2 0 4 5 4 10 0 6 -5 10 -11 10 -5 0
-7 -4 -4 -10z"/>
<path d="M3944 4198 c3 -15 26 -23 26 -8 0 6 -4 9 -9 6 -5 -4 -12 -1 -14 4 -3
6 -4 5 -3 -2z"/>
<path d="M3910 4160 c5 -9 4 -23 -2 -34 -12 -21 5 -46 17 -25 5 8 4 10 -3 5
-18 -11 -14 10 4 28 8 9 11 16 5 16 -6 0 -11 4 -11 10 0 5 7 6 17 3 10 -4 14
-2 9 5 -3 6 -15 10 -25 9 -14 -1 -17 -5 -11 -17z"/>
<path d="M3890 4152 c0 -6 -7 -18 -16 -26 -8 -9 -11 -16 -5 -16 6 0 11 -5 11
-11 0 -7 -11 -4 -27 6 -16 10 -22 12 -15 4 17 -18 15 -27 -5 -32 -17 -4 -17
-5 0 -6 10 0 16 -5 12 -11 -3 -5 -12 -7 -19 -4 -23 9 -39 -21 -26 -47 11 -19
10 -21 -5 -15 -22 8 -42 -4 -24 -15 10 -6 9 -10 -6 -15 -33 -12 -54 -35 -48
-52 4 -10 2 -13 -5 -8 -8 5 -10 1 -5 -10 5 -14 3 -16 -11 -11 -10 4 -15 3 -11
-4 8 -12 -14 -41 -25 -34 -4 3 -7 -3 -6 -13 0 -9 -4 -16 -10 -15 -7 1 -10 -6
-7 -17 3 -11 0 -20 -6 -20 -6 0 -10 -6 -9 -12 2 -8 -5 -12 -17 -10 -18 2 -18
2 -2 -8 9 -6 17 -15 17 -20 0 -5 -8 -7 -17 -4 -15 5 -16 4 -3 -5 14 -10 7 -16
-13 -12 -5 1 -6 -3 -2 -9 3 -5 0 -10 -7 -10 -9 0 -9 -3 2 -10 13 -9 13 -10 0
-11 -8 -1 -18 -1 -21 -1 -4 1 -6 -6 -5 -16 0 -9 -4 -16 -11 -15 -7 2 -10 -6
-8 -18 3 -16 0 -19 -12 -15 -13 5 -13 4 -4 -8 13 -15 64 -19 55 -4 -3 5 -13 7
-23 4 -12 -5 -11 -2 3 9 11 8 14 15 7 15 -7 0 -9 5 -5 11 4 7 9 8 13 1 4 -7
13 -5 25 4 11 7 17 17 13 20 -4 4 -13 1 -22 -6 -10 -8 -15 -9 -15 -1 0 6 5 11
10 11 19 0 59 51 53 68 -4 13 -3 14 5 4 5 -8 11 -13 13 -12 2 1 12 -2 22 -6
17 -6 17 -7 -3 -21 -11 -8 -19 -20 -18 -26 2 -7 -2 -12 -7 -12 -6 0 -9 5 -7
10 2 6 -3 4 -10 -3 -11 -11 -10 -16 5 -26 17 -13 17 -14 0 -21 -10 -5 -25 -7
-33 -6 -13 2 -13 1 0 -10 13 -10 13 -10 -1 -6 -11 4 -15 -2 -15 -24 0 -20 5
-29 15 -29 14 0 14 -1 1 -10 -13 -9 -13 -10 0 -10 12 -1 11 -3 -2 -11 -20 -11
-24 -29 -7 -29 5 0 7 5 4 10 -11 17 7 11 21 -7 13 -17 14 -17 8 0 -4 11 -1 17
7 17 10 1 9 4 -3 14 -10 7 -15 16 -11 19 3 4 12 2 20 -4 9 -9 13 -8 13 0 0 6
-4 11 -9 11 -8 0 -8 16 -1 40 1 3 5 -4 10 -15 7 -17 9 -17 9 -2 1 29 2 31 14
47 10 13 10 13 -5 1 -10 -7 -18 -9 -18 -3 0 15 26 33 35 24 5 -4 5 -2 1 5 -3
6 2 16 11 22 10 6 13 11 8 11 -6 0 -16 -5 -23 -12 -17 -17 -14 3 3 26 8 11 15
14 15 7 0 -7 5 -9 11 -5 8 5 7 10 -4 16 -9 5 -14 15 -11 23 4 8 10 12 15 9 5
-3 6 2 3 10 -4 10 -1 16 7 16 11 0 11 3 -1 10 -13 8 -13 10 2 10 20 0 35 39
18 50 -23 14 11 52 40 43 10 -4 9 -1 -3 9 -18 13 -18 15 -1 29 16 13 17 12 11
-4 -4 -10 -3 -16 2 -12 5 3 12 -1 15 -7 3 -7 3 -2 0 11 -5 18 -3 22 7 16 8 -5
5 2 -6 15 -16 19 -17 22 -3 17 24 -9 30 19 12 55 -8 16 -13 32 -10 36 3 3 6 2
6 -2 0 -5 12 -1 26 9 21 13 28 14 42 3 9 -7 14 -9 10 -4 -4 5 -3 16 2 25 5 10
5 23 0 31 -5 8 -4 22 2 33 5 10 7 21 4 25 -3 3 -6 0 -6 -6z m-7 -78 c-2 -7
-11 -10 -19 -7 -17 6 -11 20 10 20 8 0 12 -6 9 -13z m-63 -105 c0 -5 -6 -9
-14 -9 -7 0 -25 -9 -38 -20 -14 -10 -27 -17 -30 -15 -3 3 -4 -4 -3 -15 1 -11
5 -23 10 -27 4 -5 5 -3 2 3 -4 7 2 23 12 35 17 20 22 22 33 10 7 -8 8 -11 2
-8 -10 6 -49 -27 -49 -42 0 -3 -3 -5 -7 -3 -5 1 -9 -2 -9 -8 -1 -5 -2 -16 -3
-22 -1 -7 2 -18 7 -25 10 -14 0 -36 -14 -28 -5 4 -10 1 -10 -4 -4 -31 -19 -71
-27 -71 -4 0 -16 7 -26 15 -10 8 -24 12 -30 9 -6 -3 -3 1 7 9 10 9 18 18 18
21 -3 24 4 37 39 80 23 27 39 55 36 63 -4 8 8 20 30 30 19 9 33 22 30 29 -3 7
3 10 15 7 10 -3 19 -9 19 -14z m-202 -269 c-7 -11 -17 -20 -22 -20 -5 0 -1 9
9 20 10 11 20 20 22 20 2 0 -2 -9 -9 -20z m33 -107 c8 -9 9 -14 3 -10 -11 6
-43 -21 -36 -30 10 -13 -7 -11 -18 2 -10 12 -8 18 11 35 13 10 25 19 25 20 1
0 8 -8 15 -17z"/>
<path d="M3702 3858 c-9 -9 -9 -15 1 -27 10 -12 9 -14 -5 -8 -15 5 -35 -8 -37
-25 -1 -5 -1 -9 -2 -10 -7 -23 -5 -39 6 -48 15 -12 24 -3 30 29 3 15 0 18 -13
14 -15 -6 -15 -5 -3 10 7 9 17 14 22 11 5 -3 9 1 9 8 0 9 3 9 10 -2 6 -9 10
-10 10 -3 0 6 -4 14 -9 18 -6 3 -8 14 -6 25 4 23 3 24 -13 8z m-20 -96 c-7 -2
-9 -9 -5 -15 3 -7 2 -8 -2 -4 -16 14 -14 36 3 29 10 -4 12 -7 4 -10z"/>
<path d="M3616 3581 c-14 -15 -15 -21 -4 -27 7 -4 10 -3 5 1 -4 5 0 17 10 27
9 10 14 18 11 18 -3 0 -13 -9 -22 -19z"/>
<path d="M3836 4025 c-15 -12 -17 -18 -8 -27 6 -6 19 -13 28 -14 16 -2 16 -1
1 13 -15 15 -15 17 1 29 9 8 13 13 7 13 -5 0 -19 -6 -29 -14z"/>
<path d="M3739 4018 c-5 -18 -6 -38 -1 -34 7 8 12 36 6 36 -2 0 -4 -1 -5 -2z"/>
<path d="M3750 3851 c0 -5 7 -11 14 -14 10 -4 13 -1 9 9 -6 15 -23 19 -23 5z"/>
<path d="M3575 3791 c-6 -11 13 -26 22 -17 4 3 1 6 -6 6 -7 0 -9 5 -6 10 3 6
4 10 1 10 -3 0 -7 -4 -11 -9z"/>
<path d="M3537 3749 c7 -7 15 -10 18 -7 3 3 -2 9 -12 12 -14 6 -15 5 -6 -5z"/>
<path d="M3536 3711 c-4 -5 3 -7 14 -4 23 6 26 13 6 13 -8 0 -17 -4 -20 -9z"/>
<path d="M3628 3688 l-23 -33 33 23 c18 13 30 28 27 33 -9 14 -12 12 -37 -23z"/>
<path d="M3508 3676 c-20 -15 -24 -36 -7 -36 5 0 7 -5 3 -12 -5 -7 -3 -8 5 -3
9 5 10 10 2 18 -8 8 -6 16 6 29 19 21 15 23 -9 4z"/>
<path d="M3593 3622 c-10 -9 -13 -13 -6 -9 6 5 17 6 22 3 5 -4 12 -2 15 3 12
18 -12 21 -31 3z"/>
<path d="M3474 3592 c3 -5 1 -12 -5 -14 -7 -2 -10 -9 -8 -16 3 -8 9 -5 16 7 9
15 10 22 1 27 -6 4 -8 3 -4 -4z"/>
<path d="M3513 3565 c0 -8 4 -12 8 -9 4 2 9 -1 11 -8 3 -9 6 -9 11 -1 4 7 -1
16 -11 22 -14 7 -19 6 -19 -4z"/>
<path d="M3550 3571 c0 -6 5 -11 12 -11 6 0 3 -6 -7 -14 -11 -8 -25 -12 -32
-9 -16 6 -45 -16 -37 -28 3 -5 -1 -9 -8 -9 -9 0 -9 -3 2 -10 13 -8 12 -10 -3
-10 -11 0 -17 -6 -15 -17 2 -11 -2 -17 -10 -15 -8 1 -11 -2 -7 -8 4 -6 2 -17
-4 -24 -9 -10 -8 -15 3 -19 11 -4 13 -1 10 11 -3 9 2 6 10 -8 8 -14 16 -22 17
-17 5 24 3 33 -11 45 -10 9 -11 11 -1 6 10 -5 12 -3 6 6 -6 9 -4 11 6 5 12 -8
12 -6 0 8 -9 11 -10 17 -2 18 32 4 36 6 34 17 -2 7 2 12 8 12 6 0 8 -7 4 -17
-4 -13 -3 -15 5 -7 12 12 3 47 -10 39 -5 -3 -11 -1 -14 4 -7 10 6 9 43 -3 18
-6 21 -10 10 -17 -12 -8 -12 -11 1 -19 8 -5 15 -15 15 -22 0 -7 10 -13 22 -14
15 -1 20 3 15 14 -4 12 -7 12 -10 3 -3 -8 -9 -5 -19 9 -10 15 -12 25 -4 33 6
8 6 18 1 27 -5 8 -7 17 -4 21 2 4 -3 12 -11 19 -10 9 -15 9 -15 1z m20 -35 c0
-3 -4 -8 -10 -11 -5 -3 -10 -1 -10 4 0 6 5 11 10 11 6 0 10 -2 10 -4z m-64
-42 c1 -9 0 -13 -4 -10 -3 4 -7 14 -8 22 -1 9 0 13 4 10 3 -4 7 -14 8 -22z"/>
<path d="M3455 3530 c-3 -5 -1 -10 4 -10 6 0 11 5 11 10 0 6 -2 10 -4 10 -3 0
-8 -4 -11 -10z"/>
<path d="M3392 3514 c-7 -8 -8 -14 -3 -14 10 0 25 19 20 25 -2 1 -10 -3 -17
-11z"/>
<path d="M3395 3486 c-16 -13 -33 -22 -37 -19 -5 2 -8 -1 -8 -7 0 -7 8 -9 22
-4 20 6 21 5 9 -10 -9 -10 -10 -16 -2 -16 11 0 15 13 12 36 -1 6 13 19 31 27
18 9 26 17 18 17 -8 0 -28 -11 -45 -24z"/>
<path d="M3416 3472 c-2 -4 0 -14 6 -22 8 -12 9 -11 4 4 -5 14 -2 17 9 12 9
-3 13 -2 10 4 -7 12 -22 13 -29 2z"/>
<path d="M3539 3477 c-1 -1 -3 -14 -4 -29 -3 -21 0 -26 14 -23 10 2 18 -3 18
-10 0 -8 -3 -12 -7 -10 -4 2 -7 -2 -7 -9 0 -7 10 -19 21 -26 12 -7 18 -9 14
-5 -4 5 -2 15 5 24 11 14 10 14 -5 2 -10 -7 -18 -9 -18 -3 0 15 26 33 35 24 5
-4 5 -1 1 6 -4 7 -12 10 -17 7 -5 -4 -12 1 -15 9 -3 9 -11 13 -18 9 -6 -4 -6
-1 2 9 10 13 10 17 -3 22 -8 3 -16 4 -16 3z"/>
<path d="M3493 3434 c1 -19 7 -36 14 -38 20 -8 22 5 14 65 -1 3 -7 6 -15 6 -9
0 -13 -12 -13 -33z m23 -4 c0 -12 -4 -16 -9 -11 -5 5 -6 14 -3 20 10 15 12 14
12 -9z"/>
<path d="M3414 3373 c-2 -26 -2 -25 20 -17 21 8 20 31 -1 36 -13 4 -18 -2 -19
-19z"/>
<path d="M3525 3390 c-4 -6 -11 -8 -16 -4 -5 3 -16 0 -24 -6 -8 -7 -15 -9 -15
-4 0 12 -20 -19 -20 -31 0 -5 5 -3 11 5 9 13 10 12 5 -2 -3 -10 -1 -20 4 -23
9 -6 14 8 11 28 0 4 4 7 10 7 5 0 7 5 4 10 -3 6 -1 10 5 10 7 0 9 -8 5 -19 -3
-10 1 -24 10 -31 16 -13 21 0 5 16 -6 6 -6 15 1 24 8 12 9 12 7 -4 -2 -10 2
-21 8 -23 6 -2 10 10 10 27 0 30 -9 39 -21 20z"/>
<path d="M3554 3351 c3 -5 -1 -14 -10 -21 -8 -7 -13 -19 -10 -26 3 -8 0 -11
-10 -7 -8 3 -12 8 -10 11 3 3 1 11 -5 19 -10 11 -14 10 -25 -4 -16 -21 -18
-47 -4 -38 6 3 10 1 10 -5 0 -7 -7 -10 -15 -6 -17 6 -19 -2 -5 -24 9 -13 10
-13 10 0 0 12 2 13 9 1 12 -18 1 -53 -14 -47 -17 6 -55 -21 -55 -39 0 -8 -5
-17 -11 -21 -13 -8 -31 16 -24 34 2 6 1 12 -3 12 -13 0 -32 -23 -32 -39 0 -12
3 -13 8 -4 6 9 11 7 19 -6 10 -16 8 -20 -13 -30 -16 -7 -24 -7 -24 0 0 6 -5 7
-12 3 -6 -4 -8 -3 -5 4 4 5 16 8 27 5 11 -3 20 0 20 6 0 6 -5 10 -12 9 -20 -5
-20 30 0 50 16 16 21 17 40 4 14 -9 22 -10 22 -4 0 16 -38 34 -53 26 -7 -5 -7
-1 2 10 11 13 16 14 22 4 4 -7 11 -9 15 -5 4 3 1 15 -7 24 -13 16 -12 17 4 4
9 -7 16 -20 15 -29 -2 -8 3 -17 11 -20 8 -3 11 0 7 6 -4 6 4 9 19 7 16 -1 24
2 22 9 -2 6 -12 10 -23 9 -10 -1 -24 7 -32 18 -8 11 -20 18 -26 16 -7 -3 -13
1 -13 8 0 7 6 11 13 8 22 -8 35 6 24 27 -10 19 2 22 28 6 22 -13 23 0 2 19
-12 11 -20 13 -20 6 0 -7 -5 -9 -11 -5 -15 9 -30 -17 -18 -32 7 -8 4 -11 -8
-10 -14 1 -18 -6 -16 -26 1 -16 -3 -27 -9 -25 -7 1 -12 -9 -12 -23 -1 -14 -7
-29 -13 -33 -7 -4 -13 -18 -13 -30 0 -13 -5 -28 -11 -34 -33 -33 45 -40 82 -7
11 10 27 31 35 46 11 21 20 26 41 23 16 -2 32 -4 36 -4 5 -1 5 -6 1 -12 -5 -8
-8 -8 -14 0 -5 9 -10 7 -20 -4 -7 -8 -10 -19 -6 -22 4 -4 11 -1 16 7 6 8 10
11 10 6 0 -5 7 -3 15 4 14 12 14 15 -1 31 -18 20 -10 43 12 35 8 -3 14 -1 14
4 0 6 -7 10 -15 10 -8 0 -15 3 -16 8 0 4 -2 17 -3 29 -2 14 2 19 11 16 10 -4
11 -9 3 -18 -8 -9 -8 -15 0 -20 6 -4 9 -1 8 6 -2 6 3 14 11 17 9 3 11 0 6 -8
-5 -8 -4 -11 2 -7 5 3 8 20 5 38 -3 18 -1 29 5 26 5 -3 10 3 10 14 1 10 -3 19
-8 19 -6 0 -8 -4 -5 -9z m-44 -35 c0 -2 -7 -7 -16 -10 -8 -3 -12 -2 -9 4 6 10
25 14 25 6z"/>
<path d="M3430 3314 c0 -5 6 -16 13 -23 8 -10 8 -12 0 -7 -19 10 -27 -14 -10
-31 10 -10 17 -11 21 -4 4 6 0 11 -10 11 -16 0 -16 1 2 14 18 14 18 16 2 33
-10 9 -18 13 -18 7z"/>
<path d="M3510 3210 c0 -5 5 -10 11 -10 5 0 7 5 4 10 -3 6 -8 10 -11 10 -2 0
-4 -4 -4 -10z"/>
<path d="M3306 3173 c-6 -14 -5 -15 5 -6 7 7 10 15 7 18 -3 3 -9 -2 -12 -12z"/>
<path d="M3390 3171 c0 -6 5 -13 10 -16 6 -3 10 1 10 9 0 9 -4 16 -10 16 -5 0
-10 -4 -10 -9z"/>
<path d="M3463 3025 c-7 -8 -9 -16 -5 -19 4 -3 13 4 20 15 14 22 3 25 -15 4z"/>
<path d="M3430 2825 c-11 -13 -10 -14 4 -9 9 3 16 10 16 15 0 13 -6 11 -20 -6z"/>
<path d="M3225 3061 c3 -16 -1 -20 -18 -18 -12 1 -22 -4 -22 -11 0 -8 -9 -20
-19 -28 -13 -9 -15 -14 -6 -14 16 0 3 -15 -13 -15 -7 -1 -15 4 -19 10 -5 6 -8
6 -9 -2 -3 -23 -4 -28 -12 -40 -11 -17 -18 -55 -9 -49 9 5 28 -15 27 -29 -1
-24 -26 -54 -40 -49 -8 4 -12 11 -8 17 3 6 1 7 -6 3 -6 -4 -9 -11 -6 -16 3 -5
-1 -23 -10 -40 -8 -16 -12 -30 -8 -30 5 0 2 -4 -5 -9 -11 -7 -11 -9 1 -14 11
-4 15 0 12 14 -2 11 0 17 5 14 6 -3 7 2 4 12 -5 15 -4 15 5 3 5 -8 13 -11 17
-7 4 3 1 13 -5 21 -8 10 -9 16 -1 21 5 3 10 5 11 3 0 -2 2 -10 4 -18 1 -8 4
-22 6 -30 3 -8 -4 -14 -15 -15 -26 0 -32 -41 -7 -55 11 -5 18 -18 17 -27 -3
-18 -22 -24 -41 -14 -5 3 -14 6 -19 6 -5 0 -11 7 -13 15 -4 13 -3 13 6 0 6 -8
11 -10 12 -5 0 6 2 20 5 33 2 12 -1 22 -7 22 -5 0 -8 -4 -5 -9 3 -5 -1 -14 -9
-21 -23 -19 -19 -50 5 -45 22 4 26 -5 8 -23 -6 -6 -13 -24 -14 -39 -2 -18 0
-23 5 -15 5 8 12 13 17 12 5 -1 10 4 13 11 2 6 -1 9 -7 5 -6 -3 -14 -2 -17 4
-4 6 -1 9 7 8 7 -2 12 4 10 12 -2 8 0 12 3 8 4 -4 21 0 36 8 25 12 28 18 19
34 -6 11 -7 20 -3 20 4 0 2 5 -4 11 -14 14 -5 41 11 32 20 -13 34 -11 40 3 3
8 -1 17 -9 20 -8 4 -13 10 -10 15 3 4 -4 13 -16 19 -15 9 -18 15 -10 23 6 6
15 7 23 1 7 -5 27 -9 43 -9 24 0 29 4 27 19 -2 12 1 16 10 10 7 -4 4 3 -7 16
l-20 23 25 -7 25 -7 -24 14 -24 14 24 17 c13 9 19 16 13 16 -6 0 -10 14 -10
30 0 22 4 29 13 25 8 -2 11 -1 8 4 -3 5 -1 12 5 16 5 3 10 1 10 -6 0 -7 2 -10
5 -7 8 8 -6 38 -17 38 -5 0 -6 -4 -3 -10 3 -5 1 -10 -4 -10 -6 0 -11 3 -11 8
0 16 16 29 32 27 10 -2 16 2 15 8 -1 7 4 11 11 9 8 -1 11 2 7 9 -5 8 -10 8
-18 0 -8 -8 -16 -6 -29 5 -16 15 -17 15 -13 -5z m-10 -47 c0 -10 -2 -23 -6
-29 -3 -5 -5 -23 -4 -40 1 -16 -4 -37 -10 -45 -10 -13 -12 -34 -5 -42 1 -2 3
-12 4 -24 2 -16 -3 -20 -24 -19 -34 2 -52 13 -43 28 13 21 11 35 -8 53 -15 14
-16 20 -7 38 7 11 11 24 10 28 -1 4 10 5 23 2 14 -2 26 0 26 6 1 5 2 15 3 21
0 6 9 17 19 24 11 8 14 15 7 18 -6 3 -5 4 2 3 7 -1 13 -11 13 -22z m-89 -259
c0 -24 -3 -29 -6 -10 -1 6 -6 18 -11 27 -7 13 -6 16 4 12 7 -2 13 -16 13 -29z
m-39 -29 c-3 -7 0 -19 6 -25 9 -9 8 -11 -5 -6 -10 4 -18 9 -18 10 0 9 13 35
17 35 3 0 3 -6 0 -14z"/>
<path d="M3187 3003 c-2 -5 -3 -16 -2 -25 3 -17 -20 -32 -35 -23 -5 3 -16 -5
-24 -17 -14 -20 -14 -24 1 -40 20 -22 25 -46 12 -54 -5 -3 -7 -10 -3 -15 4 -6
11 -6 20 2 11 9 14 8 14 -2 0 -11 2 -11 10 1 6 9 5 19 -3 29 -13 15 -12 18 7
41 7 8 12 29 11 45 -1 17 2 35 7 42 5 6 5 14 -1 17 -5 4 -12 3 -14 -1z m-1
-74 c0 -8 -5 -21 -12 -29 -15 -18 -16 -31 -1 -50 6 -8 7 -12 3 -8 -5 4 -16 2
-24 -5 -13 -10 -14 -9 -7 3 15 25 14 38 -6 56 -13 12 -16 21 -9 34 11 20 55
20 56 -1z"/>
<path d="M3137 2928 c-8 -22 18 -44 29 -26 15 23 14 40 -1 28 -10 -8 -14 -8
-17 2 -3 8 -6 7 -11 -4z m33 -14 c0 -8 -19 -13 -24 -6 -3 5 1 9 9 9 8 0 15 -2
15 -3z"/>
<path d="M3210 2890 c0 -5 5 -10 10 -10 6 0 10 5 10 10 0 6 -4 10 -10 10 -5 0
-10 -4 -10 -10z"/>
<path d="M3054 2678 c1 -12 8 -22 17 -23 21 -4 20 19 -1 33 -14 9 -17 7 -16
-10z"/>
<path d="M3190 2689 c0 -5 5 -7 10 -4 6 3 10 8 10 11 0 2 -4 4 -10 4 -5 0 -10
-5 -10 -11z"/>
<path d="M3067 2614 c-3 -3 -3 -12 -1 -19 3 -7 -4 -20 -16 -28 -14 -9 -19 -20
-15 -28 5 -7 4 -10 -2 -6 -6 4 -10 -3 -9 -16 3 -31 -4 -40 -20 -26 -9 7 -14 8
-14 1 0 -6 4 -13 10 -17 19 -12 -1 -33 -28 -29 l-27 4 28 -15 c28 -16 37 -28
14 -19 -8 3 -20 -2 -27 -11 -12 -15 0 -22 14 -7 4 4 11 7 15 7 3 0 19 10 34
21 22 18 24 23 11 28 -17 7 -13 32 5 29 14 -4 15 14 1 22 -7 4 -8 11 -1 18 5
7 10 15 10 20 1 17 39 48 46 38 3 -6 -1 -14 -9 -17 -9 -3 -13 -10 -10 -15 3
-5 10 -7 15 -4 5 4 6 -2 2 -12 -6 -15 -5 -16 9 -3 9 9 13 19 8 24 -5 5 -5 18
1 29 8 14 8 18 0 13 -6 -4 -14 0 -17 8 -6 17 -16 20 -27 10z m-56 -181 c-12
-20 -14 -14 -5 12 4 9 9 14 11 11 3 -2 0 -13 -6 -23z"/>
<path d="M2983 2558 c1 -10 6 -17 12 -14 7 2 12 -2 12 -9 0 -7 -7 -12 -15 -11
-8 1 -16 -10 -18 -24 -3 -22 -2 -23 7 -7 7 13 14 15 22 8 11 -9 14 17 8 65 -2
19 -30 11 -28 -8z"/>
<path d="M3056 2535 c4 -8 10 -12 15 -9 11 6 2 24 -11 24 -5 0 -7 -7 -4 -15z"/>
<path d="M3097 2379 c-9 -5 -22 -7 -28 -4 -11 8 -39 -12 -39 -28 0 -5 9 -2 20
8 13 12 20 14 20 5 0 -9 3 -10 13 -1 8 6 17 8 20 4 4 -3 7 -1 7 7 0 10 3 10
15 0 13 -11 14 -10 9 4 -7 18 -12 19 -37 5z"/>
<path d="M2944 2364 c3 -8 1 -24 -4 -35 -13 -23 2 -26 20 -4 7 9 20 13 27 10
9 -3 13 0 10 7 -2 7 -11 13 -20 13 -8 0 -19 4 -24 9 -4 5 -3 6 4 2 6 -3 14 -2
18 4 3 6 -3 10 -15 10 -16 0 -20 -4 -16 -16z"/>
<path d="M3118 2193 c7 -3 16 -2 19 1 4 3 -2 6 -13 5 -11 0 -14 -3 -6 -6z"/>
<path d="M3405 2641 c-3 -5 -2 -12 3 -15 5 -3 9 1 9 9 0 17 -3 19 -12 6z"/>
<path d="M3150 2649 c0 -5 5 -7 10 -4 6 3 10 8 10 11 0 2 -4 4 -10 4 -5 0 -10
-5 -10 -11z"/>
<path d="M3375 2200 c-3 -5 -1 -10 4 -10 6 0 11 5 11 10 0 6 -2 10 -4 10 -3 0
-8 -4 -11 -10z"/>
<path d="M3375 2110 c-3 -5 -1 -10 4 -10 6 0 11 5 11 10 0 6 -2 10 -4 10 -3 0
-8 -4 -11 -10z"/>
<path d="M3486 1381 c-4 -5 -2 -12 3 -15 5 -4 12 -2 15 3 4 5 2 12 -3 15 -5 4
-12 2 -15 -3z"/>
<path d="M3350 771 c0 -6 4 -13 10 -16 6 -3 7 1 4 9 -7 18 -14 21 -14 7z"/>
</g>
</svg>
