<?xml version="1.0" standalone="no"?>
<!DOCTYPE svg PUBLIC "-//W3C//DTD SVG 20010904//EN"
 "http://www.w3.org/TR/2001/REC-SVG-20010904/DTD/svg10.dtd">
<svg version="1.0" xmlns="http://www.w3.org/2000/svg"
 width="512.000000pt" height="512.000000pt" viewBox="0 0 512.000000 512.000000"
 preserveAspectRatio="xMidYMid meet">
<metadata>
Created by potrace 1.14, written by Peter Selinger 2001-2017
</metadata>
<g transform="translate(0.000000,512.000000) scale(0.100000,-0.100000)"
fill="#000000" stroke="none">
<path d="M1739 5096 c-30 -18 -99 -118 -99 -145 0 -30 -17 -34 -42 -12 -12 12
-26 21 -31 21 -5 0 -32 -20 -60 -45 -29 -25 -57 -45 -63 -45 -22 0 -46 -38
-39 -62 4 -15 3 -19 -3 -10 -7 10 -21 2 -62 -35 -29 -26 -68 -57 -87 -68 -18
-12 -31 -24 -27 -27 7 -8 -14 -32 -36 -41 -9 -3 -10 -6 -2 -6 6 -1 12 -8 12
-17 0 -12 5 -14 18 -9 36 16 68 16 81 2 10 -13 7 -18 -18 -33 -17 -10 -31 -23
-31 -29 0 -15 -39 -52 -92 -86 -33 -22 -54 -44 -67 -74 -11 -24 -31 -51 -45
-60 -19 -13 -26 -26 -26 -49 0 -18 -4 -36 -9 -41 -12 -13 -79 -205 -93 -267
-9 -40 -7 -68 12 -165 30 -155 63 -238 98 -251 15 -5 45 -32 67 -60 22 -29 46
-51 54 -49 20 3 30 48 26 110 -4 51 -3 52 38 82 33 23 38 30 24 33 -13 3 -16
9 -12 23 4 12 -12 1 -39 -27 -41 -41 -47 -44 -61 -31 -22 22 -19 27 15 27 42
0 56 27 75 157 18 115 16 147 -15 288 -14 68 1 173 34 228 64 107 98 141 185
183 46 22 95 50 109 63 44 39 136 76 252 101 30 7 73 16 95 20 69 15 126 20
255 21 121 2 127 1 190 -30 83 -40 201 -139 232 -194 28 -50 98 -226 98 -247
0 -8 9 -26 20 -40 11 -14 20 -29 20 -33 0 -5 18 -46 39 -91 22 -45 44 -94 50
-109 6 -15 15 -27 20 -27 11 0 44 -50 38 -56 -3 -3 -21 11 -40 31 -23 24 -38
32 -42 25 -4 -7 6 -23 23 -38 17 -16 43 -61 62 -107 19 -44 35 -82 37 -84 1
-2 12 4 23 14 16 14 19 26 14 50 -4 25 2 47 27 94 30 59 31 67 25 134 -8 94
-39 187 -101 308 -16 31 -50 97 -74 146 -24 48 -48 95 -52 103 -5 8 -18 34
-30 58 -22 45 -124 139 -172 160 -35 15 -38 15 -31 -2 8 -22 -11 -27 -61 -16
-31 7 -52 7 -63 0 -14 -8 -14 -10 -2 -11 8 -1 23 -1 33 0 9 1 17 -1 17 -6 0
-13 -40 -34 -50 -28 -6 4 -10 1 -10 -5 0 -6 -4 -9 -9 -5 -11 6 -9 64 2 82 4 7
3 22 -3 33 -9 16 -8 22 5 26 23 9 18 23 -12 37 -16 6 -34 20 -41 29 -7 10 -22
18 -32 18 -21 0 -36 16 -19 22 6 2 -17 17 -51 32 -51 24 -66 27 -81 18 -25
-16 -25 -16 -53 15 -18 19 -28 24 -38 16 -7 -6 -25 -13 -40 -15 -21 -4 -31 0
-43 19 -14 21 -14 24 0 29 8 4 32 4 53 0 20 -3 30 -3 22 1 -8 3 -26 11 -40 16
-14 6 -52 12 -85 13 -33 1 -78 5 -100 8 -26 4 -49 1 -66 -8z m21 -55 c-25 -22
-47 -38 -48 -36 -10 10 13 47 36 60 51 27 57 14 12 -24z m-160 -155 c0 -31
-11 -39 -26 -18 -8 11 -9 22 -3 35 13 22 29 13 29 -17z m25 14 c3 -5 1 -10 -4
-10 -6 0 -11 5 -11 10 0 6 2 10 4 10 3 0 8 -4 11 -10z m613 -16 c12 4 32 2 44
-5 33 -17 33 -18 16 -32 -9 -6 -19 -23 -23 -37 -6 -23 -5 -24 8 -7 14 16 16
16 31 2 20 -20 20 -23 2 -40 -12 -12 -15 -12 -20 1 -4 11 -14 14 -27 11 -12
-3 -29 -2 -38 3 -9 5 -23 11 -32 13 -23 8 -31 67 -11 90 11 12 18 14 23 6 3
-6 16 -8 27 -5z m-814 -180 c23 -9 -35 -54 -69 -54 -28 0 -28 0 -9 21 16 17
31 27 61 38 1 1 8 -2 17 -5z m1189 0 c3 -3 3 -12 0 -20 -4 -11 -7 -11 -19 1
-8 7 -14 16 -14 19 0 8 25 8 33 0z m-1513 -1093 c0 -19 -23 -45 -32 -36 -3 3
-3 17 0 30 5 29 32 34 32 6z"/>
<path d="M2292 4076 c-42 -23 -7 -35 73 -25 83 10 98 15 90 29 -9 14 -136 12
-163 -4z"/>
<path d="M2670 3980 c0 -5 4 -10 9 -10 6 0 13 5 16 10 3 6 -1 10 -9 10 -9 0
-16 -4 -16 -10z"/>
<path d="M1572 3962 c-37 -11 -21 -26 30 -30 56 -4 161 15 153 29 -7 10 -147
11 -183 1z"/>
<path d="M2065 3930 c3 -5 8 -10 11 -10 2 0 4 5 4 10 0 6 -5 10 -11 10 -5 0
-7 -4 -4 -10z"/>
<path d="M2313 3880 c-59 -35 -93 -117 -53 -127 10 -3 21 -16 24 -29 4 -14 11
-22 16 -19 5 3 26 -1 47 -9 21 -8 61 -20 89 -26 48 -11 55 -10 88 12 20 13 36
26 36 29 0 7 -93 29 -122 29 -13 0 -18 5 -15 14 3 7 1 18 -5 24 -8 8 -7 13 5
18 9 3 18 18 18 33 2 22 2 23 6 4 3 -13 13 -23 26 -25 14 -2 23 -11 25 -25 4
-28 19 -29 52 -3 14 11 32 20 40 20 8 0 22 6 31 13 23 17 7 38 -50 66 -62 29
-92 26 -59 -7 9 -9 5 -12 -17 -12 -57 0 -105 12 -105 26 0 20 -40 17 -77 -6z
m262 -20 c3 -5 -1 -10 -9 -10 -9 0 -16 5 -16 10 0 6 4 10 9 10 6 0 13 -4 16
-10z"/>
<path d="M1328 3793 c-10 -3 -18 -9 -18 -14 0 -15 30 -23 43 -10 14 14 -2 29
-25 24z"/>
<path d="M1645 3770 c-31 -16 -67 -30 -79 -30 -32 0 -145 -95 -146 -122 0 -5
9 -8 20 -8 11 0 20 4 20 10 0 13 74 32 94 24 11 -4 26 2 40 15 22 21 24 21 30
4 5 -12 0 -23 -16 -36 -69 -53 -65 -47 -45 -58 9 -6 15 -14 12 -20 -13 -20 43
-8 76 17 19 14 63 40 98 57 34 17 67 40 72 52 5 11 18 34 29 52 19 31 19 32 0
55 -15 18 -21 21 -31 11 -15 -15 -75 -17 -84 -3 -10 16 -29 12 -90 -20z"/>
<path d="M2170 3761 c0 -5 5 -13 10 -16 6 -3 10 -2 10 4 0 5 -4 13 -10 16 -5
3 -10 2 -10 -4z"/>
<path d="M1912 3688 c2 -13 9 -23 17 -23 23 0 24 23 1 35 -19 10 -21 9 -18
-12z"/>
<path d="M2193 3665 c-10 -10 -9 -16 1 -24 11 -9 14 -6 14 14 0 14 -1 25 -2
25 0 -1 -6 -7 -13 -15z"/>
<path d="M1860 3485 c-14 -7 -38 -16 -54 -19 -25 -6 -28 -5 -17 7 8 10 -2 8
-29 -6 -29 -14 -38 -22 -29 -28 8 -4 14 -20 15 -36 4 -87 1 -82 34 -70 22 9
30 18 30 37 0 33 33 87 59 95 12 3 21 13 21 21 0 8 -1 14 -2 13 -2 -1 -14 -7
-28 -14z"/>
<path d="M2390 3489 c0 -16 99 -114 107 -106 10 11 -43 81 -76 100 -21 12 -31
14 -31 6z"/>
<path d="M1000 3464 c0 -8 5 -12 10 -9 6 4 8 11 5 16 -9 14 -15 11 -15 -7z"/>
<path d="M2466 3065 c-4 -14 -12 -25 -20 -25 -7 0 -25 -9 -40 -21 -17 -14 -33
-18 -47 -14 -20 7 -21 4 -15 -20 4 -15 2 -33 -4 -40 -15 -18 4 -29 29 -15 29
15 41 12 41 -10 0 -31 21 -24 73 25 85 82 93 114 35 134 -43 15 -45 14 -52
-14z"/>
<path d="M1822 2983 c-23 -15 -44 -34 -47 -42 -8 -21 43 -79 95 -107 l45 -24
3 21 c2 12 12 23 22 26 18 5 35 46 26 62 -3 5 -23 5 -44 1 -51 -9 -77 8 -68
44 3 15 13 26 21 26 8 0 15 5 15 10 0 17 -24 11 -68 -17z"/>
<path d="M2177 2954 c-3 -3 -30 -8 -59 -11 -89 -8 -93 -9 -93 -19 0 -5 25 -10
56 -10 31 -1 65 -7 76 -13 17 -9 30 -6 67 15 25 14 46 30 46 35 0 10 -83 13
-93 3z"/>
<path d="M2893 2622 c-40 -84 -200 -277 -272 -328 -73 -53 -94 -77 -127 -143
-15 -31 -33 -63 -40 -71 -7 -8 -20 -40 -29 -72 -9 -31 -22 -59 -30 -62 -18 -6
-19 -4 -36 63 -7 29 -20 56 -29 59 -8 3 -28 14 -43 25 -15 10 -57 25 -92 32
-35 8 -142 48 -237 90 -203 90 -255 113 -363 154 -44 17 -107 51 -139 76 -33
24 -63 42 -68 39 -5 -4 -6 -44 -2 -94 l6 -88 -40 -21 c-35 -18 -70 -49 -129
-117 -13 -15 -40 -24 -91 -33 -88 -14 -156 -41 -236 -94 -72 -49 -165 -131
-190 -169 -10 -15 -30 -31 -45 -34 -14 -3 -70 -17 -123 -31 -93 -25 -102 -29
-182 -98 -46 -39 -126 -103 -177 -140 -52 -38 -113 -87 -136 -109 l-43 -39 0
-709 0 -708 2560 0 2560 0 0 540 0 540 -25 40 c-29 46 -93 96 -135 105 -37 8
-35 5 -70 121 -16 53 -47 147 -70 209 -36 98 -50 123 -112 196 -134 160 -226
245 -338 313 -190 115 -297 163 -555 248 -71 23 -119 31 -225 38 -152 10 -262
36 -404 95 -49 21 -115 42 -147 48 -55 11 -59 13 -73 52 -8 22 -18 58 -22 80
-11 66 -18 66 -51 -3z m-782 -563 c26 -26 22 -76 -8 -96 -20 -14 -24 -13 -48
11 -40 40 -30 106 17 106 10 0 27 -9 39 -21z m199 -195 c0 -15 -6 -24 -15 -24
-15 0 -21 40 -9 53 12 11 24 -3 24 -29z m638 -59 c1 -17 -2 -37 -8 -45 -8 -13
-11 -13 -26 1 -12 12 -14 25 -9 48 9 42 39 39 43 -4z m-940 -127 c32 -41 20
-85 -22 -74 -21 5 -26 12 -26 40 0 46 24 63 48 34z m664 -315 c37 -43 33 -93
-7 -93 -35 0 -61 46 -56 98 2 18 46 15 63 -5z m1361 -637 c14 5 67 -48 67 -67
0 -5 12 -9 26 -9 14 0 39 -8 55 -17 30 -18 38 -33 18 -33 -11 0 -10 -13 7
-109 4 -22 3 -32 -3 -28 -6 4 -13 25 -17 47 -6 40 -26 56 -26 22 0 -23 -35
-57 -44 -43 -4 6 -20 9 -36 8 -24 -2 -30 -7 -30 -24 0 -37 -19 -36 -26 1 -8
43 -31 67 -45 45 -5 -8 -9 -20 -9 -26 0 -7 -4 -13 -10 -13 -13 0 -13 16 0 41
8 15 7 19 -4 19 -20 0 -36 -31 -36 -69 0 -17 -5 -31 -11 -31 -7 0 -9 16 -7 43
1 23 0 43 -4 45 -20 6 -28 0 -28 -23 0 -14 -5 -25 -11 -25 -7 0 -8 18 -4 55 7
51 6 55 -14 55 -20 0 -23 6 -35 71 -5 24 29 42 44 24 17 -20 30 -19 30 3 0 21
56 66 70 57 25 -16 6 15 -35 55 -24 24 -42 46 -40 50 2 4 35 -24 74 -62 43
-42 75 -66 84 -62z m-1059 -261 c30 -46 13 -95 -33 -95 -16 0 -55 85 -48 104
10 26 62 20 81 -9z"/>
<path d="M3966 703 c-8 -19 -8 -18 22 -27 27 -9 29 4 3 26 -18 15 -20 15 -25
1z"/>
<path d="M4030 650 c0 -5 7 -10 15 -10 8 0 15 5 15 10 0 6 -7 10 -15 10 -8 0
-15 -4 -15 -10z"/>
<path d="M4106 537 c-18 -13 -18 -14 -1 -21 22 -8 44 9 29 24 -7 7 -16 6 -28
-3z"/>
<path d="M2128 2267 c46 -7 66 -7 75 2 8 8 -7 11 -63 10 l-75 -2 63 -10z"/>
</g>
</svg>
